<svg xmlns="http://www.w3.org/2000/svg" xmlns:xlink="http://www.w3.org/1999/xlink" width="358.298" height="393.209" viewBox="0 0 358.298 393.209">
  <defs>
    <clipPath id="clip-path">
      <rect id="Rectangle_324" data-name="Rectangle 324" width="358.298" height="393.209" fill="#000000"/>
    </clipPath>
  </defs>
  <g id="Group_759" data-name="Group 759">
    <g id="Group_758" data-name="Group 758" clip-path="url(#clip-path)">
      <path id="Path_902" data-name="Path 902" d="M282.716,120.07v-4.291c-23.948,13.487-45.78-20.828-92.194,5.494-46.415-26.322-68.246,7.993-92.194-5.494v4.291H93.062V253.144H287.983V120.07Zm-1.037,2.8,1.059-.025L281.87,240.9l-.328,0Zm-89.773,2.866c33.549-23.788,57.641,3.355,86.614-5.184V241.328c-22.369,10.453-50.932-21.654-86.614,3.354Zm-89.351-5.261c28.973,8.539,53.066-18.6,86.614,5.184V244.605c-35.681-25.008-64.244,7.1-86.614-3.355ZM99.4,122.8l.138,118.029-.327,0L98.34,122.772Zm-2.613,0,.858,114.519-.306,0L95.725,122.772Zm.239,126.123v-4.842c1.318,2.463,3.454,3.932,7.9,4.842Zm49.258.413a35.655,35.655,0,0,1,33.233,0Zm-6.489-.2-18.886.01c15.651-2.445,37.413-15.612,62.243-.326-14.181-6.79-31.22-8.225-43.356.316m-12.529-3.61c-7.831,2.583-22.089,2.844-26.935-2.936,7.856,4.359,18.157,3.886,26.568,1.528,37.774-13.228,46.536-6,58.245,1.512-15.434-9.392-27.619-11.061-57.878-.1m63.217,4.728c-1.826,0-3.3-.911-3.3-2.036s1.479-2.036,3.3-2.036,3.3.911,3.3,2.036-1.479,2.036-3.3,2.036m11.084-.837a35.655,35.655,0,0,1,33.233,0Zm39.722-.2c-12.135-8.542-29.175-7.107-43.356-.317,24.83-15.287,46.591-2.119,62.243.326Zm12.529-3.61c-30.261-10.957-42.445-9.289-57.878.1,11.708-7.514,20.473-14.74,58.244-1.512,8.411,2.359,18.711,2.831,26.568-1.528-4.846,5.78-19.1,5.52-26.933,2.937m30.24,3.4h-7.9c4.443-.909,6.579-2.379,7.9-4.842Zm-.312-11.6h-.308l.857-114.519,1.06-.025Z" transform="translate(-11.374 -13.569)" fill="#000000" fill-rule="evenodd"/>
      <path id="Path_903" data-name="Path 903" d="M142.827,241.272c-.449-.068-.576-.449-.5-1.031-.735.718-1.1.637-2.06.736q.007-.384.011-.769c-1.086.978-2.24.407-3.856.964.039-.46-.3-.545-.241-1.029-.684-.187-.5.522-.779.757-.623-.84-1.446.07-1.777-1.053a1.811,1.811,0,0,0-.524.76c-.78-.731-1.589.061-2.036-.8-.344.251-.957.226-1.037.751-.752.059-.935-1.041-1.28-.02-.524-.08-.5-.692-.752-1.037-.265.246-.527.5-.779.757a.962.962,0,0,1-1.009-1.041c-.3.036-.224.464-.269.765-.459.025-.535-.322-1.02-.272.007-.427.013-.855.021-1.281,1.1.264.469-1.251,1.3-1.26.676-.066.835.368.751,1.038.9-.471,1.289-.005,1.525.792-.406-.451,2.244-.743,2.826-.468.034.017-.04.509-.009.513.321.031,1.322-1.222,1.275.276.473-1.549,2.382.328,2.828-.724,1.163.994,2.51.329,3.828.83a2.515,2.515,0,0,1,1.813-1.252c-.2.7.5.522.5,1.031,2.239-.429,3.327-.569,5.653-1.19-.005.341-.011.681-.016,1.024.158-1.448,1.348-.4,1.56-1.513,1.333-.282,1.572.5,2.293.8-.268.333-.266.94-.533,1.273-.8-.3-.719-.177-1.031.5a4.031,4.031,0,0,0-3.337.46c-.5-1.774-1.956,1.52-2.556-.3-.528.063-.521.675-.785,1.011" transform="translate(-15.268 -28.985)" fill="#000000" fill-rule="evenodd"/>
      <path id="Path_904" data-name="Path 904" d="M166.444,237.839c-.236.559-1.1.726-1.02-.272-.5.1-.219.99-1.037.752-.127-.379-.369-.652-.5-1.032-.474.032-.171.865-.528,1.016-.8.107-.712-.655-1.009-1.04-.265,1.034-1.206.8-1.535-.025-.562,1.083-1.364.313-2.322.988a1.665,1.665,0,0,1,.277-1.276c1.239.506,1.2-.288,2.06-.736,1.066.822,1.1-.4,2.04.544a1.8,1.8,0,0,0,.524-.76c.448-.456.587.619,1.016.528.12-.025.318-.506.262-.508.234.012,1.178.851,1.025.016,1.155.478,2.262,1,2.524,2.345a1.123,1.123,0,0,1-1.784-.541" transform="translate(-19.369 -28.829)" fill="#000000" fill-rule="evenodd"/>
      <path id="Path_905" data-name="Path 905" d="M168.706,232.407c-.39.218.065.385-.271,1.02-.492.112-1.09-.806-1.028.241-.52-.255-1.005-.54-1.525-.794.014-.679-.073-1.462.284-1.787,1.179,1.178,3.314-.612,4.082,1.088,1.893-.434,2.567.265,4.1-.191,1.258,1.5,4.7.62,5.584,3.162.686.186.5-.521.781-.756a4.592,4.592,0,0,0,1.516,1.3,1.673,1.673,0,0,0-1.045,1.264c-1.395-.581-3.041-.919-3.809-2.109-.83.9-2.889-.052-3.311-1.076a9.1,9.1,0,0,0-1.545.489,1.442,1.442,0,0,1-.24-1.03c-.6.07-.49.882-1.292.747.211-.958-1.356-.2-1-1.295-.755.336-.84.645-1.276-.277" transform="translate(-20.273 -28.243)" fill="#000000" fill-rule="evenodd"/>
      <path id="Path_906" data-name="Path 906" d="M133.473,233.713c.641-.166-.464-.69-.236-1.284.772.473,1.475-.053,2.305.036a1.686,1.686,0,0,1,.759.526c.5-.039.265-.643.523-.76.576-.262,1.65.5,2.053-.224a1.2,1.2,0,0,1,.244.772c.584-.678,1.062-.348,1.533.28a1.129,1.129,0,0,0,.528-1.016c.778.829.431.006,1.536.025-.02,1.105.447,1.442-.289,2.043a1.786,1.786,0,0,1-.5-.774c-.775,1.68-2.986-.084-4.121,1.47-.76-.187-1.562-.334-1.776-1.052-.529.061-.078,1.131-.785,1.012-.781-1.018-1.972.872-2.291-.806-1.24.765-2.387-.673-3.341.716-.709-.153-.7-1-1-1.551-.456.219-.342,1.033-1.293.746.023-1.326-.964-.517-1.785-.542.1-.433-.191-.486-.5-.519.013-.679-.074-1.463.285-1.789.734-.04,1.4-.008,1.267.788.655-.12,1-.421,1.017.528.525-.152.092-1.292,1.04-1.007a5.77,5.77,0,0,0,.487,1.544c.474-.031.171-.865.529-1.016.75.031,1.441.116,1.264,1.043a.7.7,0,0,0,.524-.758c.977.229,1.776.632,2.024,1.568" transform="translate(-15.281 -28.233)" fill="#000000" fill-rule="evenodd"/>
      <path id="Path_907" data-name="Path 907" d="M149.447,234.2c.2-.786-.7-.5-.493-1.288.3.046.457-.049.517-.249.584.564,2.469.262,2.577-.983,1.086-.024,1.279.517,1.544-.489,1.722.062,2.335.725,3.327.053.728-.031.486.875,1.529.537.368,1.335-1.181.689-1.3,1.516-.979-.886-2.193.632-3.064-.561a1.807,1.807,0,0,0-.525.761c-.234-.276-.944-.1-.757-.781-.926,1.142-1.718.949-3.351,1.484" transform="translate(-18.201 -28.255)" fill="#000000" fill-rule="evenodd"/>
      <path id="Path_908" data-name="Path 908" d="M180.191,229.729c-1.624.145-1.964-.955-3.312-1.077.006-.341.011-.682.017-1.023-1.2-.4-1.8.008-2.293-.8-1.626,1.354-2.41-.371-4.617.439-.126-.379-.368-.65-.5-1.032a3.921,3.921,0,0,1-1.807,1c-.019-1.064-.169-.054-.512-.009-.56.039-.814-.222-.757-.779-.445.343-1.02.811-1.021-.272-.613.32-2.552.819-1.787-.284-.676-.09-.671.523-.785,1.012-.764-.018-1.56,0-1.525-.794-.473-.252-.868.753-1.023-.017-.3.037-.224.463-.268.765-.321-.363-1.253-.133-1.269-.789-.363.111-1.4,1.533-1.54.232a1.82,1.82,0,0,0-.525.76c-.73-.48-.794-.429-1.787-.284-.189-.89.3-1.076.536-1.529.655.933,1.677.063,2.061-.736.621.668.751.334,1.282-.235,1.532,1.268,2.6-.223,3.825,1.085,1.1-1.1,2.227-.1,3.848-.452-.04.458.3.544.241,1.028.715-1.555,2.108-.221,2.832-.979a4.359,4.359,0,0,1,.752,1.036.706.706,0,0,0,.524-.761c.6.1,1.1.28,1.268.789.363-1.257,1.777.03,1.536.025.283.005,1.051-.717,2.051-.225.305.149.42.811,1.277.276-.117,1.032,1.08.541,1.525.792.351.2.6,1.551,2.036.8-.041.736.112,1.677-.289,2.043" transform="translate(-18.924 -27.409)" fill="#000000" fill-rule="evenodd"/>
      <path id="Path_909" data-name="Path 909" d="M142.213,227.11c-.473.031-.171.864-.528,1.015-.9.029-.791-.914-1.26-1.3-.408.621-1.329.71-1.812,1.251-.67-.643-1.193.032-1.52-1.046-.811.654-1.117.218-2.06.735-.164-.262-.585-.275-.5-.775-1.186.783-1.859-.278-3.593.455-.621-1.533-2.527-.106-3.312-1.077a1.981,1.981,0,0,1-3.065-.56c-.083-.954,1.049-.654.8-1.781.788.207,1.3,1.417,2.044.29.449,1.218,1.953-.1,2.029,1.311.686.187.5-.521.779-.755.215.624,1.328.221,1.785.54.123.085.073.728.243.772.357.093,1.325-1.216,1.281.02.3-.037.223-.463.267-.763,1.3-.061,3.111,1.744,4.1.064,1.372.664,2.568-.006,3.309,1.332.681-.522.154-1.077.537-1.528.434.336,1,.546,1,1.3a1.127,1.127,0,0,0,.528-1.016c.62,1.046,1.138-.675,1.783.541.349-.075.223-.639.274-1.021.785-.173.746.454,1.532.281.467,1.294-.454,1.706-1.316,2.284-1.576-.952-2.414,1.524-3.322-.564" transform="translate(-15.223 -27.379)" fill="#000000" fill-rule="evenodd"/>
      <path id="Path_910" data-name="Path 910" d="M152.1,221.424c-1.2-1.048-2.134.158-3.314-1.077-.474.032-.171.865-.528,1.016-.3-.077-1.046-1.146-1.024-.017-.872-.644-1.687.012-2.289-1.059a.7.7,0,0,0-.523.759c-.2-.643-2,.262-1.78-.8-1.1.811-1.044-.159-2.564.215a1.658,1.658,0,0,1-.236-1.283c.459-.477.787.362,1.031-.5.83.742,2.579-.14,3.052,1.329.523-.155.19-1.195.789-1.268,2.6,1.41,3.96.947,6.652.361a1.2,1.2,0,0,1,.246.773c.106-.861,1.16.021,1.28.021.063,0,1.016-1.246,1.024.015a.7.7,0,0,0,.523-.76c1.517.593,3.566-2.268,4.862.334-.435-.1-.486.19-.521.5-3.033.087-4.4,1.363-6.413.668.065.415-.249.436-.268.764" transform="translate(-17.086 -26.689)" fill="#000000" fill-rule="evenodd"/>
      <path id="Path_911" data-name="Path 911" d="M133.639,220.978c-.843-.852-2.31-.022-2.8-1.325-.37.053-.1.764-.525.762-.622.449-.4-.668-.755-.782-.3-.1-.785.551-1.032.5-.417-.09-.28-.856-.752-1.036-.244-.093-.451.5-.521.5-.812,0-1.264-1.268-2.287-1.06.007-.427.014-.853.02-1.28,1.153-.937,1.681.262,2.82-.212-.136.8.348,1.007.488,1.545.808.14.115-1.268,1.039-1.009-.633.592.277.578.5,1.032.184-.606,1.432-.768,1.276.276a6.149,6.149,0,0,1,4.092.32,1.444,1.444,0,0,0-.272,1.021c-.332.351-1.255.091-1.292.748" transform="translate(-15.273 -26.507)" fill="#000000" fill-rule="evenodd"/>
      <path id="Path_912" data-name="Path 912" d="M171.59,212.367c1.483-.186,3.237-.051,4.614-.183-.2.7.5.525.5,1.032,1.127-.373,3.063-.133,3.825,1.087.609-.367.485-.534,1.283-.237-.218.885.367.99.228,1.8a1.016,1.016,0,0,1-1.785-.54c-1.085.578-1-.6-2.051.223-.216-.211-.14-.7-.5-.775-.5.085-1.416,1.2-1.275-.277-.5.095-.219.989-1.036.752.039-.459-.305-.546-.241-1.028-1.093.05-2.188.1-2.291-.8-.349.073-.223.636-.274,1.019-1.653-.639-2.909-.656-3.815-1.6-1.277,1.49-2.334.174-3.606,1.224a.707.707,0,0,1-.5-.777,1.81,1.81,0,0,0-.524.76c-1.066-.822-1.183.3-2.04-.544-.207-.82.416-.786.533-1.273,1.227.989,1.229-.079,2.311-.476a1.442,1.442,0,0,1,.241,1.029c.287-1.275,1.954-.287,1.816-1.508.67-.061,1.1.111,1.012.783.438-.837,2.474-.033,2.056-.478.493-.7,1.475.23,1.524.791" transform="translate(-19.806 -25.819)" fill="#000000" fill-rule="evenodd"/>
      <path id="Path_913" data-name="Path 913" d="M141.424,214.266c-.683-.73-.635-.213-1.536-.025-.006-1.436-1.562.184-1.516-1.3-.93.826-1.714.38-2.838,1.235a1.673,1.673,0,0,1-.235-1.283,1.291,1.291,0,0,0-.78.755c-.693-.588-2.214-.375-2.28-1.572a4.344,4.344,0,0,0-.785,1.012c-.449-.069-.577-.45-.5-1.033-.686-.187-.5.521-.78.757-.449-.069-.577-.451-.5-1.031-1.472.743-2.481-.427-4.357.186-.672-.883.083-2.034.3-2.813.883.333.459.753.747,1.293,1.147-.167,2.151.707,2.565-.216.84,1.432,1.785-.032,2.284,1.318.528-.063.522-.676.785-1.012.617.547.541.374,1.533.281.368,1.4,1.565.623,2.8.812a3.383,3.383,0,0,0,.243.772c.02,0,2.916-1.056,3.072.048.034-.873,2.133-.177,3.08-.463.242-.073.278-.867,1.032-.5a3.479,3.479,0,0,1,.248.518c.83.043.389-.784,1.032-.5.863.385,1.679,1.1.988,2.322-1.687.315-3.107-1.028-4.616.439" transform="translate(-15.283 -25.561)" fill="#000000" fill-rule="evenodd"/>
      <path id="Path_914" data-name="Path 914" d="M156.532,213.7a19.717,19.717,0,0,0-4.347-.324c-.09-1.395,2.329-.2,2.076-1.761,1.323.3,1.368-.255,2.565-.214.569.663.074,1.806-.294,2.3" transform="translate(-18.599 -25.837)" fill="#000000" fill-rule="evenodd"/>
      <path id="Path_915" data-name="Path 915" d="M148.07,208.86c-.916-.891-1.907-.155-2.541-1.32-.41,1.528-1.706-.589-2.064.993-.865,0-1.1-.614-1.52-1.049-.424.985-2.394,1-2.825.467-.37.054-.1.765-.524.76-1.406-1.077-3.257.453-4.076-1.345a1.13,1.13,0,0,0-.529,1.016c-1.339-.626-1.59-1.838-3.056-1.074a1.433,1.433,0,0,1-.239-1.028c-1.174.379-1.5-.552-2.548-.809-1.43,1.191-3.735.855-3.817-1.6,2.115.021,4.37.631,6.394.614.471,1.568,3.178.233,4.064,2.113.566-.715,1.519-.218,2.044.289.494-.1.217-.988,1.037-.752a1.447,1.447,0,0,1,.239,1.029c1.055-1.349,2.78.89,3.342-.715.8-.109.664.7,1.267.786.5-.017-.383-.959.277-1.275.5.267,1.086.461,1.263,1.045.643-.485,1.534-.685,1.789.284.686-1.417,3.275-.573,3.361-2a.962.962,0,0,1,1.008,1.04c.229-.688,1.428-1.138,1.537.025.369-1.229,1.585.033,1.812-1.252,1.491.549.219,2.1-.3,2.812-.6-.383-.564-.646-1.024-.017-.676.067-.835-.367-.752-1.036-.528.061-.257.951-.784,1.012-.906-.956-.729-.286-1.276-.276-.438.007-.478-.147-.5-.521-.181.767-1.183.688-1.052,1.775" transform="translate(-15.195 -24.917)" fill="#000000" fill-rule="evenodd"/>
      <path id="Path_916" data-name="Path 916" d="M181.676,208.874c-.837.054-1.227-.323-1.265-1.045-.654.123-1,.422-1.016-.528-.2.829-1.147,1.035-1.28-.021-1.449,1.1-4.126-.924-5.633-.089a1.437,1.437,0,0,1-.241-1.028c-.474.031-.171.866-.528,1.016-.487-.413-2.121-.767-2.56-.04a.705.705,0,0,1-.5-.776c-.5.1-.218.989-1.037.751a1.123,1.123,0,0,0-.5-1.031c-.532.057-.088,1.123-.532,1.273-1.318-1.083-.847.476-2.312.475,0-.256.008-.513.012-.769-.872-.205-.342,1.037-1.293.749-.237-.615-.818-1.653-.219-2.309,1.317.763,3.654-2.592,4.867-.178a1.823,1.823,0,0,0,.525-.761c.614.789,2.393.3,2.812.3l-.007.512c.683.008.839-.924,1.8-.484.592.272.483.727.757.78.341.067.863-.552,1.288-.492s.7.988,1.024.017c1.455,1.332,2.795,1.185,4.341.837.342,1.375,2.215.8,1.492,2.84" transform="translate(-19.862 -24.985)" fill="#000000" fill-rule="evenodd"/>
      <path id="Path_917" data-name="Path 917" d="M148.222,201.967c-2.2-.068-1.845-.523-4.094-.32-.1-.488-.541-.651-.492-1.289.243-.269.946-.064.78-.755.8.621,1.3-.033,1.78.8.342-.824,1.153-.237,1.792.029.59.088.3-.736.779-.756.625,1.087,1.365-.743,1.785.54.128-1.323,2.053-.828,3.085-.72.209.023.708-.5.776-.5.483.014.806.545,1.016.528.6-.048.949-.472,1.287-.492,0,0-.006.512-.006.512.51.028,2.01-1.332,2.308-.219.4-.631.651-1.41,1.813-1.253a1.125,1.125,0,0,0,.5,1.032c-.4.8-1.619.76-1.821,1.765-.762-1.054-2.117.841-3.064-.561-.362.594-1.358,1.087-1.8.226-.386.3-1.147.2-1.041,1.008-.929-.376-1.377.344-1.783-.54-.3.037-.224.464-.269.765-.808.109-1.041-.335-1.268-.789-.346.764-1.1.449-1.538-.024-.451.054-.589.432-.527,1.016" transform="translate(-17.554 -24.205)" fill="#000000" fill-rule="evenodd"/>
      <path id="Path_918" data-name="Path 918" d="M131.972,201.605c-.258-1.434-2.407-1.734-2.8-.812-.2-.818-1.59-.477-1.773-1.31-.149.476-1.318.934-1.019-.271a3.651,3.651,0,0,1-1.8.74c.082-.668-.076-1.1-.753-1.037a3.982,3.982,0,0,1,.545-2.041,2.358,2.358,0,0,1,1.264,1.045,4.231,4.231,0,0,1,1.8-.484c.165.851,1.45.614,1.253,1.813,1.072-.8,1.965-.084,3.081-.463-.08.748.566.8.488,1.544.463-1.464,1.431.558,1.807-1q.839-.058.756.779c.382-.472.51-1.208,1.553-1,.083.678.6.932,1.525.794a2.176,2.176,0,0,1-.281,1.532c-.671.061-1.1-.111-1.013-.784a1.176,1.176,0,0,1-2.051.224c-.345.763-1.1.449-1.537-.024.067.675-.366.835-1.036.751" transform="translate(-15.132 -24.061)" fill="#000000" fill-rule="evenodd"/>
      <path id="Path_919" data-name="Path 919" d="M167.754,200.014c-.916-.6-.418-1.072-.735-2.06.654-.412,1.831.506,1.555-1.255.862-.162.93.444,1.009,1.04.521-.047,1.4-.488,1.8-.228.038.024-.039.51-.007.513.253.023.44-.5.521-.5,1.059-.015,1.793,1.105,3.048,1.585.518-.993,1.061-.149,1.532.281-.279-.754,1.7-.47,2.044.288a4.252,4.252,0,0,1,1.8-.485,2.072,2.072,0,0,0,2.029,1.313c-.363.322-.177,1.207-.537,1.529-1.385-1.37-3.637-.485-4.584-1.609-.043-.049-.607.339-.521.5-.445-.241-.883-.491-.749-1.293-2.251,1.009-4.423-1.222-6.669.664-.074-1.229-.2-.269-1.532-.282" transform="translate(-20.412 -24.036)" fill="#000000" fill-rule="evenodd"/>
      <path id="Path_920" data-name="Path 920" d="M141.6,195.847a2.317,2.317,0,0,1-1.009-1.04,1.814,1.814,0,0,0-.523.759,2.523,2.523,0,0,1-.988-2.32,1.125,1.125,0,0,0,1.032-.5c.447.241.455.905.749,1.291.554.054.131-.906.276-1.275,1.345.429,1.454,1.066,2.539,1.319.437-.441,2.543-1.005,3.078-.207a1.784,1.784,0,0,0,.523-.76c.5.428.886.732,1.281.021.676-.068.651.545.751,1.035.386-.827,1.572-1.753,2.316-.73.113.809-.475.9-.284,1.787-.973-.022-1.192-1.076-1.289.492-1.035-.467-1.99.465-2.033-1.056-1.446,1.79-5.224.071-6.421,1.18" transform="translate(-16.998 -23.557)" fill="#000000" fill-rule="evenodd"/>
      <path id="Path_921" data-name="Path 921" d="M133.15,194.4c-.947-.271-.661-.557-1.788-.285.178-1.465-1.33.166-1.519-1.048a.705.705,0,0,0-.524.76.962.962,0,0,1-1.009-1.04c-.862.307-2.377.033-2.544-1.065-.281.06-.183.507-.521.5-.844-.023-.966-.744-1-1.551a9.144,9.144,0,0,0,1.544-.489c.2.727,1.161.724,1.256,1.556,1.3-1.1,1.414.9,2.309-.22.692-.164.485.538.756.781.184-.607,1.433-.769,1.276.276a13.657,13.657,0,0,1,2.052-.223c.217.209.14.7.5.776.108.806-.7.664-.789,1.268" transform="translate(-15.185 -23.244)" fill="#000000" fill-rule="evenodd"/>
      <path id="Path_922" data-name="Path 922" d="M180.514,189.688c-.478-.378-1.126-.591-1-1.553-.508-.005-.336.693-1.031.5a1.436,1.436,0,0,1-.241-1.029c-.386.4-1.149.267-1.016-.528-.386.4-1.149.266-1.016-.528-1.733-.021-2.6.306-4.34-.838-.25,0-.2.311-.265.508-.558.039-.811-.222-.755-.779-.809.271-.679.11-1.276-.276-.183.592-1.168.355-1.3,1-.728-.67-1.919-.636-3.064-.56-.248.017-.205.3-.265.507-1.046.09-1.611-.287-1.515-1.3.561-.206,1.29.026,1.552-1,.8.3.579.032,1.536.024-.079.412.234.443.245.771,2.124-1.734,5.643.461,8.189.387.126.38.368.65.5,1.032.35-.075.223-.639.272-1.02l1.281.02c-.2.785.7.5.492,1.288.523-.619,1.2-.482,1.271.532.509.005.337-.693,1.033-.5-.169,1.256,1.344.882,1.507,1.817-.017.764-.679.86-.792,1.525" transform="translate(-19.973 -22.464)" fill="#000000" fill-rule="evenodd"/>
      <path id="Path_923" data-name="Path 923" d="M135.2,188.789c-.769-.765-2.44-.661-2.788-1.836a10.834,10.834,0,0,1-4.6-.842c-.509,0-.337.693-1.032.5.223-.72-.351-.668-.237-1.282-.4,1.59-1.294-.376-1.8.738a1.632,1.632,0,0,1-.992-2.065c1.251.681,1.527-.057,3.076-.207-.208,1.041,1.658.075,1.26,1.3,1.395-.65,2.538.32,3.832.573a1.956,1.956,0,0,0,1.029-.241c.4.105.449.659.756.78.874.348,2.057-.394,2.553.552.158-1.1,1.723.245,1.548-.743.654.038.89.484,1.269.787a3.656,3.656,0,0,1,2.064-.992c-.1.435.193.486.5.52-.1.763-.172,1.558-.8,1.782-.916.383-.14-.873-.756-.781-.275.182-.041.769-.532,1.273-.887-.866-2.129.179-2.544-1.065,0,1.044-1.6.43-1.814,1.251" transform="translate(-15.11 -22.462)" fill="#000000" fill-rule="evenodd"/>
      <path id="Path_924" data-name="Path 924" d="M152.875,187.572c-1.942-.224-2.059-1.113-4.092-.32-.111-.9-.284-.846.025-1.536.826.124,2.219-.3,2.3.549.236-.448.729-1.256,1.029-.241.347-.074.221-.637.271-1.021.819-.2.967.24,1.273.533.72-.24-.362-.689.271-1.02,1.151.207.829.7,1.792.028.1.489.542.652.492,1.289.533-.058.087-1.124.533-1.273,1.231.066,2.015.567,2.019,1.825-1.252-.153-2.6,2.043-2.817-.045a1.291,1.291,0,0,0-.779.756c-.45-.068-.577-.449-.5-1.031-.92.2.09.9-.789,1.268-.916.384-.14-.871-.755-.78-.35.075-.223.638-.273,1.02" transform="translate(-18.165 -22.551)" fill="#000000" fill-rule="evenodd"/>
      <path id="Path_925" data-name="Path 925" d="M144.1,182c-.621-.154-1.313-.241-1.263-1.045-.564-.177-.375.52-.777.5-.54-.025-.924-1.269-1.272-.532-.257.547-.744.317-1.8.741a1.436,1.436,0,0,1-.24-1.029c-.14.294-1.232,1.475-1.285.235-.071.706-1.268.251-1.548.744-.524-.079-.5-.693-.75-1.037a.91.91,0,0,1-1.537-.024c-.169.434-.78.408-1.037.752-.237-.435-.837-.814-1.023-.018-.894-.786-2.347-1.38-3.321-.564-.526-.276-1.981-1.956-2.292-.8-.808.111-.567-.8-1.526-.536.013-.68-.075-1.464.283-1.788.237.619.78-.274,1.028-.24.421.058.947.983,2.029,1.311.482.146,3.556-.341,3.312,1.077.366-1.133,1.023-.621,1.537.025.183-.5,1.174-.794,1.279.02.3-.037.225-.463.269-.763.779.2.937-.248,1.541-.233.063.729.542.794,1.012.785.524-.011.9,1.327,1.27.533.035-.071-.05-.48.009-.512-.422.229,1.5-.261,1.8-.229a2.678,2.678,0,0,1,.248.516c.523.021.566-.474.777-.5.643-.08.92.545,1.016.528.284-.049.178-.5.521-.5.692,0,.192.692.756.781.076.013,1.33-1.465,1.8-.228,1.153-1.05,3.214-2,4.626-.951.186.577-1.2.8-.277,1.276-.723.751-1.954.281-2.825.468-.687.147-1.114.943-1.8.484a1.815,1.815,0,0,0-.524.759" transform="translate(-15.206 -21.675)" fill="#000000" fill-rule="evenodd"/>
      <path id="Path_926" data-name="Path 926" d="M177.95,181.55c.3-.521-.382-1.227-.5-.521-.664-.365-.362-1.668-.992-2.065-.348.074-.222.637-.273,1.02-.8.108-.712-.656-1.008-1.039a.7.7,0,0,0-.524.759c-1.14-.758-.8-.406-2.04-.545.081-.583-.046-.963-.5-1.032-.355.252.1.424-.525.761-.37-.229-.806-.4-.75-1.036-1.229,1.75-3.559-.568-4.878.69-.654-.04-.888-.484-1.267-.787-.13.648-.823.711-1.3,1-.708.1-.226-.959-.751-1.036a1.658,1.658,0,0,1-1.809,1,1.2,1.2,0,0,1-.243-.772c-.523,1.376-1.219-.388-1.552,1-.336-.1-.4-.456-.761-.524,0-1.217,1.287-1.1,1.821-1.763.559-.039.811.223.756.779.348-.074.222-.637.273-1.02.779.2.76-.43,1.54-.232.039,1.282,2.1.213,2.8,1.325.749-1.216,2.361.652,2.581-1.239a1.4,1.4,0,0,1,1.008,1.041c.951.113.687-1.028,1.806-.741-.041.459.3.544.239,1.028a1.125,1.125,0,0,0,.529-1.016c.75.03.941.6,1.264,1.045.363-1.138.612.133,1.02.273.266.091.414-.489.521-.5.816-.121,1.11,2.064,1.788.283a2.312,2.312,0,0,0,2.544,1.065c-.039.46.3.546.241,1.029,1.143-1.1,2.179.441,2.274,1.829-1.065,1.319-2.1-.69-3.328-.053" transform="translate(-19.344 -21.528)" fill="#000000" fill-rule="evenodd"/>
      <path id="Path_927" data-name="Path 927" d="M146.374,175.627c-.989-.554-1.822-.211-3.58-.312.079-.749-.566-.8-.488-1.544.3-.039.455.063.508.263.259-.5,1.541-1.264,1.8-.227.3-.036.223-.464.269-.765.559-.039.813.223.756.78,1.2-1.465,3.614-.075,4.637-1.72,1.45-.541,1.988.887,2.313-.476.584-.062.961.077,1.016.528,1.727-1.088,3-.818,5.132-.686-.066,1.983-2.179.821-2.592,2.007-.767-.893-1.233.377-1.785-.541a1.814,1.814,0,0,0-.523.76c-.922-.305-3.115-.937-3.858.963-1.078-.93-2.74-.212-3.6.967" transform="translate(-17.391 -20.941)" fill="#000000" fill-rule="evenodd"/>
      <path id="Path_928" data-name="Path 928" d="M132.095,175.421c-.671.061-1.1-.111-1.012-.784-.23.11-.462.218-.521.5-1.2-1.828-3.027-.545-4.852-.846.264.045-1.108-1.184-1.784-.541q.018-1.151.036-2.3c.363.027.724.053.772-.245,1.22,1.777,2.752.774,4.069,1.858.279-.06.182-.507.52-.5.678-.068.653.545.752,1.037.6-1.007,1.583.985,1.541-.233.363-.016.725-.03.764.269.715-1.1,2.211-.386,2.321-.988.234.276.943.093.756.779.476-1.007,1.447-.048,2.3.037-.179.683-.749.961-1.049,1.52-.32-.362-1.252-.131-1.268-.788-.666.264-.966.909-1.808,1-.009-1.037-1.045.64-1.528-.536,0,.255-.007.512-.011.767" transform="translate(-15.146 -20.924)" fill="#000000" fill-rule="evenodd"/>
      <path id="Path_929" data-name="Path 929" d="M181.975,175.668c-.777-.425-1.627-.779-1.765-1.821-.853.674-.6-.615-1.536-.025.115-.615-.459-.564-.235-1.284-.526.153-.092,1.293-1.04,1.009.116-.534-.164-.681-.241-1.028-.4.1-.231.8-1.032.5.117-.534-.165-.682-.24-1.028-1.487-.132-4.286.009-5.877-.862-1.193.326-3.039,1.174-4.613.183.013-.68-.074-1.464.285-1.789a37.612,37.612,0,0,0,7.161.626c.455.911,1.763.348,2.812.3.109,1.366,1.74-.221,1.772,1.307.354-.834,1.393-.471,1.271.533.7-1.005,2.772,1.134,3.814,1.854a5.713,5.713,0,0,0-.536,1.528" transform="translate(-20.214 -20.718)" fill="#000000" fill-rule="evenodd"/>
      <path id="Path_930" data-name="Path 930" d="M134.074,169.1c-.578-1.979-3.544.171-4.323-1.86-.35.072-.224.636-.274,1.02-1.782-.5-2.632-1.113-4.347-.326-.13-.977-.678-1.7-.217-2.565,2.072-.236,3.106,1.086,4.349.326.434.335,1,.545,1,1.3.349-.074.223-.638.271-1.021,2.749,1.748,6.108,1,9.2,1.17.7-1.073,2.313.33,3.346-.972.708-.1.225.959.751,1.036-.237.451-1.044.309-.788,1.269-1.3-.2-3.144,1.028-3.837-.317-.588-.089-.3.734-.779.756-.642.033-.8-.406-1.012-.785-.182.5-1.177.8-1.281-.02-.592.429-.761,1.3-2.065.992" transform="translate(-15.244 -20.207)" fill="#000000" fill-rule="evenodd"/>
      <path id="Path_931" data-name="Path 931" d="M150.714,168.3c-1.491-.966-1.131-2.249.292-2.3-.23.008.458,1.1.26-.251,1.353.18,1.636.193,2.065-.992.335.095.4.456.761.524.13-.732,1.031-.672,1.3-1.26.7-.176.506.517,1.016.528.36-.32.746-1.241,1.029-.24.474-.032.171-.866.528-1.016.56-.039.811.221.758.779.934-.929,1.593.32,3.08-.463-.288.951.952.42.748,1.293-.448.435-1-.393-1.038.751-1.308-1.011-2.217.643-3.06-.816-.689.564-1.643,1.367-2.312.475-.262,1.153-1.461-.01-1.3,1.26-1.734-.528-2.733,1.125-4.125,1.728" transform="translate(-18.302 -19.956)" fill="#000000" fill-rule="evenodd"/>
      <path id="Path_932" data-name="Path 932" d="M181.861,168.517c-1.617.192-1.506-1.054-2.809-.557.118-.535-.164-.681-.24-1.029-.191.178-1.263.617-1.019-.271-1.248,1.1-3.65-1.659-4.093-.322-.619.1-.549-.476-1.276-.275.117-.534-.165-.683-.24-1.028-.3.036-.224.463-.269.763-1.361-.746-1.957.686-3.068-.3.473-.91-.009-.779-1.011-.785a1.217,1.217,0,0,0,.269-.764c.634.047,1.241.067,1.288-.492.53.157.819.549,1.268.787.434-.829.312-.056.767.012a3.366,3.366,0,0,1,2.305.036c.162.083.348.734.5.777.131.037.636-.3,1.029-.241.918.14,2.621.826,3.576.57.138,1.438,1.706,1.055,3.061.817.5.542.169,1.7-.037,2.3" transform="translate(-20.512 -19.977)" fill="#000000" fill-rule="evenodd"/>
      <path id="Path_933" data-name="Path 933" d="M183.71,162.41c-1.85-.038-2.3-1.375-3.565-1.336-.054-.752.592-.778.536-1.528,1.248.082,1.067.989,2.3.549.07.94,1,1.049.731,2.316" transform="translate(-22.016 -19.499)" fill="#000000" fill-rule="evenodd"/>
      <path id="Path_934" data-name="Path 934" d="M136.7,161.582c-1.326-.958-1.893.14-2.544-1.065-.509-.115-1.094.7-1.548.745-.31.028-.349-.471-.5-.521-.422-.135-.566.34-1.03.24-.056-.011-.235-.514-.247-.516-.906-.072-1.328.673-1.528-.536-.541.56-2.589.8-2.813-.3a6.211,6.211,0,0,1-1.04,1.008c-.476-.631-1.128-1.094-.988-2.321.68-.39,2.09-.715,2.3.549,3.117-.075,4.364.971,7.169.113-.2.785.694.5.492,1.289.08-.713,1.34-1.221,1.28.02.363-1.025,1.16-1.095,2.056-.48.174.786-.454.746-.279,1.533-.363-.027-.724-.054-.773.243" transform="translate(-15.209 -19.306)" fill="#000000" fill-rule="evenodd"/>
      <path id="Path_935" data-name="Path 935" d="M142.537,159.3a6.366,6.366,0,0,0,3.333-.2c.128.381.368.652.5,1.032.377-.392.862-.672,1.045-1.263.8-.015.717.817,1.783.541,1-1.381,2.978-1.28,5.151-1.713-.04.794.793.743.484,1.8-1.77-.108-3.3-.686-4.117,1.214-2.015-.42-4.078.81-5.89-.092-1.1.47-2.251.575-2.284-1.317" transform="translate(-17.42 -19.273)" fill="#000000" fill-rule="evenodd"/>
      <path id="Path_936" data-name="Path 936" d="M170.4,158.962c-.69-.654-.639-.887-1.533-.281a1.435,1.435,0,0,1-.24-1.028q-.4.369-.779.756c-2.639-1.216-4.856-.274-6.662.151-.6-.61.061-1.257.033-2.049,1.188.247.815.688,1.288-.492.692-.165.487.537.757.78.408-.937.928-.256,1.3-1,1.182,1.532,4.322.046,5.357,1.366,1.923-.284,4.684-1.1,5.859,1.885-2.417.3-3.436-1.641-5.376-.085" transform="translate(-19.669 -19.041)" fill="#000000" fill-rule="evenodd"/>
      <path id="Path_937" data-name="Path 937" d="M138.785,154.776c-.208-.185-.943-1.508-1.02-.271-1.309-1.113-2.313-.23-4.092-.32.313-.332.107-.4.011-.769-.679,1.155-2.346-.507-2.576.983-3.134-.725-5.2-1.737-7.144-1.649a4.4,4.4,0,0,1,.552-2.552c1.044.167,1.821.591,2.024,1.569.684-.506.822.305,1.527.536.97.318,1.914.012,3.073.048a5.989,5.989,0,0,1,1.533.28c.249,0,.2-.31.265-.508,1.315.273,2.543.561,3.584.056.938-.227.195.662.754.781.6.127,1.77-1.317,2.306.037.273-.423,1.016-1.265,1.284-.236a1.8,1.8,0,0,0,.523-.759c1.135.574,2.718.264,3.085-.721.643-.032.8.406,1.013.785.348-.073.221-.636.271-1.02.988.279,1.058-.117,1.79.284.171.787-.456.747-.282,1.533-1.366.3-2.209-.434-2.572.729-.333-.267-.94-.267-1.273-.533-.661.052.344.447-.017,1.024-1.08.068-1.819-1.079-2.051.224-.911-.666-2.208-.65-2.569.47" transform="translate(-15.148 -18.356)" fill="#000000" fill-rule="evenodd"/>
      <path id="Path_938" data-name="Path 938" d="M136.338,147.478c-.48-.312-1.737-1.323-2.044-.289a.706.706,0,0,1-.5-.776c-.266.117-.2.432-.521.5-.58.13-.347-.506-.5-.52-.073-.007-1.07,1.158-1.02-.273-.535.6-1.838.331-2.556-.3a1.807,1.807,0,0,0-.524.759.706.706,0,0,1-.5-.776c-.248,0-.2.311-.263.507-1.523-.429-2.575-1.888-3.813-1.853-.2-.726.373-.657.277-1.275,1.886.2,2.737-.016,3.564,1.335,1.475-.585,3.562,1.585,4.348.326a.707.707,0,0,1,.5.776c1.042-.479,3.315.049,4.349.326.406-1.29,1.929.142,2.07-1.249a.706.706,0,0,1,.5.778c1.437-.82,2.818-.429,4.877-.693-.018.649.946,1.774-.04,2.56-1.186-1.57-5.267.582-6.129-1.121-.474.031-.17.866-.528,1.016-.452-.065-1.286.238-1.016-.528a1.812,1.812,0,0,0-.525.76" transform="translate(-15.161 -17.5)" fill="#000000" fill-rule="evenodd"/>
      <path id="Path_939" data-name="Path 939" d="M182.411,147.807a4.587,4.587,0,0,0-3.06-.816c.04-.459-.305-.544-.24-1.028-.546.707-1.356-.4-1.785-.541-.234-.075-.254.512-.263.508-.277-.079-.3-.714-.5-.777-.716-.226-2.374.478-2.544-1.065-.4.363-.521,1.023-1.548.744-.509-.729-.442-1.058-.225-2.052,2.283.552,4.25,1.205,6.89,1.646a1.212,1.212,0,0,1,.243.771c1.891.325,3.791-.07,3.032,2.61" transform="translate(-21.031 -17.45)" fill="#000000" fill-rule="evenodd"/>
      <path id="Path_940" data-name="Path 940" d="M154.823,145.86c-.347-1.059-2.266.71-3.325-.308-.442-2.02,2.511-.531,2.594-2.007.226.117.454.232.5.521a1.807,1.807,0,0,0,.525-.761c.924.521,2.6-.079,3.58.313a1.816,1.816,0,0,0,.524-.761c1.1,1.08,3.28-1.13,4.6.33.6-.072.967-.39,1.8-.228a4.2,4.2,0,0,1-.542,1.785c-1.278-.055-2.166.443-2.807-.557-.354.075-1.562,1.133-1.535-.025-.518.413-.909.7-1.282-.02-.556.639-1.619.757-2.323,1.243a.706.706,0,0,1-.5-.776,4.434,4.434,0,0,0-.785,1.013c-.334-.338-.946-.354-1.028.239" transform="translate(-18.51 -17.436)" fill="#000000" fill-rule="evenodd"/>
      <path id="Path_941" data-name="Path 941" d="M167.378,137.764c-.3-1.174.909-.8,1.048-1.52,1.45.939,3.837-1.292,4.865.077.249,0,.2-.31.265-.508.791.073.981.728,1.519,1.048.793.039.743-.794,1.8-.484.42,3.079,6,.41,6.08,4.194-.821.669-1.8-.122-2.036-.8-3.117-.44-3.455-1.176-5.859-1.885-.25,0-.2.31-.265.507-2.078-.9-4.767-.723-7.416-.629" transform="translate(-20.451 -16.598)" fill="#000000" fill-rule="evenodd"/>
      <path id="Path_942" data-name="Path 942" d="M148.785,140.081l-1.023-.017c.291-.31.231-.521-.248-.515.091-.6.42-.955.285-1.79a2.1,2.1,0,0,1,1.78.8c.414-.873,1.663-.885,2.581-1.241a1.841,1.841,0,0,1,.5.777,1.808,1.808,0,0,0,.524-.76c.626.506,1.512.735,1.8-.227,1.731,1.47,3.048-1.059,4.873-.435.369-.053.1-.764.523-.761.955-.083.455,1.241,1.26,1.3-.779.452-.553,1.186-1.3,1.26-.472.047-.644-.527-.761-.524-.33.01-1.275,1.084-1.28-.02-.8.995-3.346.19-4.117,1.216a.7.7,0,0,1-.76-.524c-.726.52-1.9.874-2.565.215-.377,1.183-2.245-.014-2.069,1.248" transform="translate(-18.028 -16.61)" fill="#000000" fill-rule="evenodd"/>
      <path id="Path_943" data-name="Path 943" d="M182.35,223.346c-1.252-.083-1.225-.1-1.777-1.052a.7.7,0,0,0-.776.5c-.607-.305-1.049-1.555-1.764-1.822-1.25-.465-3.974.368-4.6-.84-.834.078-2.245.956-3.069-.305-1.358,1.274-3.344-.185-4.876.693l.024-1.537c.231-.227,1.788-.37,1.037-.752.839-.683,1.875,1.49,2.564-.214.8.478.712,1.071,1.521,1.047.4-.857,2.908-.619,3.327.053.5-.1.219-.99,1.037-.752.364,1.3,1.763.082,2.029,1.313.784.2.5-.7,1.288-.492,1.023.4,1.932,1.906,3.82,1.34-.162,1.167.428,1.6.212,2.821" transform="translate(-20.226 -26.645)" fill="#000000" fill-rule="evenodd"/>
      <path id="Path_944" data-name="Path 944" d="M181.018,195.726c-.485-.208-1.3.079-1.537-.024-.263-.117-.408-.743-.5-.778-.254-.094-1.616.587-1.268-.786a1.292,1.292,0,0,0-.78.754c-.56-1.668-1.77.261-2.023-1.569-.545-.127-.494.359-.525.761-1.078-.8-1.648-.783-3.068-.3.054-.641-.381-.808-.751-1.038a1.811,1.811,0,0,0-.524.761c-.864-1.266-2.784-.268-4.085-.833-.635,1.178-2.22.376-2.321.988-.671-.295-1.731-.932-1.8.484-1.232-.84-2.281.227-3.587.2-.8-.069-.413-1.281-.48-2.057.714-.11,1.717.916,1.545-.488.671-.061,1.1.112,1.012.784.208-.173.707-.387.767.012.3-.036.224-.463.269-.764,2.669.171,4.887-1.255,6.92-.4.049.02-.058.5-.009.513.226.062,1.369-.819,1.529.536.348-.075.222-.639.273-1.02.836-.054,1.228.323,1.263,1.044a1.125,1.125,0,0,0,.528-1.016c1.126,0,1.426.8,2.027,1.311.349-.073.223-.636.274-1.019,1.2.507,1.645.367,2.539,1.321.321-.857,1.72-.091,2.041.544,1.051-.75,1.371-.021,2.3.549q-.012.768-.024,1.536" transform="translate(-19.277 -23.362)" fill="#000000" fill-rule="evenodd"/>
      <path id="Path_945" data-name="Path 945" d="M179.752,155.131c-1.65-1.187-3.292-.835-4.313-2.629-.241.154-.953.582-.764-.268-1.378-.33-1.368.771-2.309.219-.411-2.647-3.56-.025-3.808-2.109-.809.511-1.6-.255-2.3-.291-.856-.045-.693.859-1.28-.02-.473,1.44-2.775-.105-3.349,1.227-.855-.828-1.873.7-2.3-.549-1.757.736-3.7.489-5.66,1.7-.8-.572-.243-2.144.3-2.813a.707.707,0,0,1,.5.776c.65-1.255,2.51,0,3.088-.975.437-.087.48.208.5.521.573-.19,1.391-.126,1.548-.744,1.117,1.242,2.453-1.138,3.321.564a7.47,7.47,0,0,1,4.121-1.472c-.04.459.3.546.239,1.028.448.085.561-.363,1.029-.239.187.049.5.775.5.775,1.232.259,3.173-.6,3.829.83.15-.474,1.318-.933,1.02.271,1.073-.394,1.943-.09,2.283,1.318,1.3-1.074,2.69,1.63,4.584,1.609.11.806-.7.665-.787,1.268" transform="translate(-18.732 -18.121)" fill="#000000" fill-rule="evenodd"/>
      <path id="Path_946" data-name="Path 946" d="M140.911,141.016c-1.959-1.51-3.76.4-5.1-1.105a18.172,18.172,0,0,1-6.153.415c-.291-.052-.713-.746-1.012-.784-.229-.03-1.449.484-2.053.223-.786-.34-.567-1.174-1.516-1.3.2-.9,2.884-.463,3.84.061.4-.543,1.694-.863,1.789.284.684.012.569-.8,1.291-.747.951,1.562,3.49.183,5.113.592.16.04.535.781.5.776a7.781,7.781,0,0,0,3.854-.707c.392.84-.389,1.325-.549,2.3" transform="translate(-15.286 -16.859)" fill="#000000" fill-rule="evenodd"/>
      <path id="Path_947" data-name="Path 947" d="M262.7,241.322c.449-.067.578-.446.5-1.03.731.722,1.1.642,2.057.745,0-.256-.006-.512-.008-.768,1.081.983,2.238.417,3.851.98-.037-.458.308-.543.245-1.027.686-.184.5.524.777.76.627-.838,1.447.077,1.781-1.045a1.805,1.805,0,0,1,.521.762c.782-.729,1.588.068,2.039-.791.343.253.956.23,1.033.756.752.062.939-1.037,1.28-.015.525-.077.5-.689.758-1.032.263.247.523.5.776.759a.961.961,0,0,0,1.012-1.036c.3.037.222.463.266.764.458.029.536-.319,1.021-.266q-.007-.641-.016-1.281c-1.1.259-.464-1.253-1.295-1.268-.676-.067-.837.365-.756,1.035-.9-.476-1.289-.01-1.526.786.407-.45-2.244-.753-2.824-.48-.036.017.038.508.006.512-.322.03-1.318-1.227-1.276.27-.468-1.55-2.385.319-2.826-.736-1.167.988-2.512.319-3.832.813a2.517,2.517,0,0,0-1.807-1.261c.194.7-.5.521-.5,1.031-2.237-.438-3.324-.584-5.647-1.215,0,.341.008.681.01,1.024-.151-1.45-1.346-.4-1.553-1.52-1.332-.287-1.575.488-2.3.8.266.334.262.941.527,1.275.8-.293.72-.174,1.031.5a4.024,4.024,0,0,1,3.334.474c.507-1.772,1.95,1.527,2.558-.286.528.065.52.678.781,1.015" transform="translate(-31.1 -29)" fill="#000000" fill-rule="evenodd"/>
      <path id="Path_948" data-name="Path 948" d="M241.377,237.784c.233.559,1.1.73,1.021-.269.5.1.215.992,1.033.758.13-.38.371-.65.5-1.031.474.033.168.866.524,1.018.8.111.715-.65,1.012-1.036.261,1.036,1.2.8,1.536-.018.557,1.086,1.362.32,2.317,1a1.675,1.675,0,0,0-.271-1.279c-1.241.5-1.2-.292-2.057-.744-1.069.819-1.094-.4-2.043.535a1.815,1.815,0,0,1-.521-.763c-.446-.458-.59.617-1.019.525-.118-.025-.315-.507-.26-.51-.233.011-1.181.846-1.025.012-1.157.472-2.266.991-2.534,2.334a1.125,1.125,0,0,0,1.786-.533" transform="translate(-29.282 -28.824)" fill="#000000" fill-rule="evenodd"/>
      <path id="Path_949" data-name="Path 949" d="M238.22,232.345c.389.219-.066.386.266,1.022.492.115,1.095-.8,1.028.244.521-.25,1.008-.534,1.528-.785-.011-.679.079-1.463-.277-1.79-1.182,1.174-3.31-.625-4.084,1.072-1.891-.442-2.569.253-4.1-.21-1.264,1.49-4.7.6-5.6,3.137-.686.183-.5-.524-.777-.759a4.594,4.594,0,0,1-1.523,1.3,1.671,1.671,0,0,1,1.039,1.269c1.4-.577,3.045-.906,3.818-2.092.824.906,2.89-.04,3.317-1.061a8.965,8.965,0,0,1,1.541.493,1.433,1.433,0,0,0,.245-1.027c.6.072.487.883,1.289.754-.205-.96,1.357-.193,1.009-1.292.754.34.838.649,1.278-.272" transform="translate(-27.46 -28.236)" fill="#000000" fill-rule="evenodd"/>
      <path id="Path_950" data-name="Path 950" d="M273.244,233.806c-.642-.169.467-.688.241-1.284-.774.471-1.474-.059-2.3.027a1.683,1.683,0,0,0-.763.52c-.5-.04-.262-.643-.521-.76-.574-.265-1.652.49-2.051-.233a1.2,1.2,0,0,0-.248.772c-.581-.679-1.06-.355-1.533.273a1.124,1.124,0,0,1-.523-1.018c-.782.826-.433,0-1.537.018.015,1.105-.454,1.441.28,2.045a1.818,1.818,0,0,0,.5-.773c.767,1.685,2.986-.07,4.114,1.49.761-.183,1.563-.328,1.78-1.045.529.063.074,1.133.78,1.016.786-1.014,1.968.88,2.295-.8,1.238.771,2.389-.662,3.338.731.709-.15.706-1,1.007-1.548.455.226.338,1.036,1.289.753-.017-1.325.967-.512,1.786-.533-.1-.433.193-.485.506-.517-.01-.679.08-1.463-.277-1.79-.733-.042-1.4-.015-1.269.782-.654-.124-1-.425-1.019.524-.525-.154-.087-1.292-1.036-1.012a5.75,5.75,0,0,1-.494,1.542c-.475-.032-.168-.865-.525-1.018-.751.028-1.441.11-1.268,1.038a.706.706,0,0,1-.521-.762c-.979.226-1.78.624-2.031,1.56" transform="translate(-32.249 -28.249)" fill="#000000" fill-rule="evenodd"/>
      <path id="Path_951" data-name="Path 951" d="M258.415,234.217c-.2-.786.7-.5.5-1.286-.3.045-.456-.051-.516-.251-.586.562-2.469.25-2.572-.994-1.087-.029-1.282.51-1.542-.5-1.722.055-2.338.715-3.328.039-.727-.034-.49.873-1.532.53-.374,1.333,1.178.694,1.3,1.521.983-.881,2.191.642,3.068-.547a1.8,1.8,0,0,1,.52.763c.237-.276.946-.091.761-.778.922,1.146,1.713.956,3.345,1.5" transform="translate(-30.476 -28.255)" fill="#000000" fill-rule="evenodd"/>
      <path id="Path_952" data-name="Path 952" d="M225.454,229.613c1.622.152,1.967-.945,3.316-1.062,0-.341-.008-.682-.011-1.023,1.2-.4,1.8.016,2.3-.8,1.617,1.361,2.411-.36,4.615.459.127-.378.37-.649.5-1.03a3.917,3.917,0,0,0,1.8,1c.024-1.063.168-.053.512-.005.56.041.814-.219.761-.776.442.344,1.015.815,1.021-.269.611.322,2.548.83,1.789-.277.675-.085.666.528.779,1.016.764-.014,1.561.006,1.528-.786.473-.25.864.758,1.024-.011.3.038.22.465.264.766.322-.362,1.253-.126,1.272-.784.363.114,1.392,1.54,1.54.239a1.837,1.837,0,0,1,.521.762c.733-.477.8-.425,1.789-.276.192-.889-.3-1.078-.53-1.53-.659.93-1.677.054-2.057-.746-.625.666-.753.332-1.282-.241-1.538,1.262-2.6-.234-3.831,1.067-1.09-1.1-2.226-.106-3.846-.467.038.457-.306.542-.245,1.027-.708-1.559-2.107-.233-2.827-.991a4.31,4.31,0,0,0-.757,1.031.707.707,0,0,1-.521-.763c-.6.092-1.1.275-1.271.783-.356-1.26-1.778.023-1.536.018-.283.005-1.047-.721-2.051-.233-.3.147-.423.809-1.278.271.113,1.032-1.081.535-1.528.786-.352.2-.6,1.548-2.039.791.039.736-.12,1.678.28,2.044" transform="translate(-27.52 -27.407)" fill="#000000" fill-rule="evenodd"/>
      <path id="Path_953" data-name="Path 953" d="M263.893,227.163c.474.033.167.865.523,1.017.9.033.8-.909,1.268-1.294.4.622,1.325.716,1.806,1.259.672-.64,1.192.038,1.525-1.04.808.657,1.117.223,2.057.743.165-.261.587-.272.5-.773,1.182.789,1.86-.269,3.588.471.629-1.531,2.53-.1,3.319-1.062a1.982,1.982,0,0,0,3.067-.547c.087-.954-1.046-.657-.791-1.785-.787.2-1.305,1.411-2.043.28-.455,1.217-1.952-.11-2.035,1.3-.686.185-.5-.523-.776-.758-.219.623-1.328.215-1.787.533-.123.083-.076.727-.247.77-.358.091-1.32-1.221-1.281.016-.3-.039-.22-.464-.264-.765-1.3-.066-3.119,1.731-4.1.046-1.374.658-2.568-.017-3.314,1.318-.678-.526-.149-1.079-.53-1.531-.434.334-1,.542-1.009,1.292a1.129,1.129,0,0,1-.524-1.018c-.625,1.043-1.136-.679-1.785.533-.349-.075-.22-.639-.269-1.021-.785-.177-.749.449-1.534.273-.472,1.291.446,1.709,1.305,2.29,1.58-.944,2.408,1.534,3.324-.55" transform="translate(-31.67 -27.395)" fill="#000000" fill-rule="evenodd"/>
      <path id="Path_954" data-name="Path 954" d="M254.443,221.424c1.205-1.044,2.131.167,3.317-1.062.474.032.168.865.524,1.017.3-.076,1.051-1.14,1.024-.011.875-.642,1.687.019,2.294-1.051a.708.708,0,0,1,.521.761c.2-.641,2,.271,1.782-.788,1.094.816,1.045-.154,2.563.226a1.668,1.668,0,0,0,.242-1.282c-.456-.478-.79.358-1.03-.5-.833.737-2.578-.152-3.058,1.315-.522-.157-.183-1.195-.783-1.271-2.6,1.4-3.965.93-6.654.332a1.2,1.2,0,0,0-.248.771c-.1-.86-1.16.017-1.281.015-.063,0-1.01-1.249-1.024.011a.707.707,0,0,1-.521-.763c-1.519.588-3.556-2.284-4.863.313.436-.1.486.194.518.506,3.033.1,4.4,1.382,6.411.694-.068.415.247.438.264.766" transform="translate(-30.218 -26.686)" fill="#000000" fill-rule="evenodd"/>
      <path id="Path_955" data-name="Path 955" d="M274.188,221.07c.847-.849,2.311-.013,2.8-1.313.37.054.1.764.521.763.621.451.4-.665.759-.778.305-.094.782.555,1.031.5.417-.09.284-.856.757-1.033.245-.092.45.506.518.506.812,0,1.269-1.262,2.293-1.05q-.008-.64-.015-1.28c-1.148-.942-1.681.254-2.819-.225.133.8-.353,1.005-.494,1.542-.808.136-.11-1.269-1.036-1.013.631.6-.279.577-.5,1.031-.183-.607-1.43-.774-1.279.271a6.144,6.144,0,0,0-4.094.3,1.442,1.442,0,0,1,.269,1.022c.329.352,1.255.1,1.288.754" transform="translate(-33.32 -26.522)" fill="#000000" fill-rule="evenodd"/>
      <path id="Path_956" data-name="Path 956" d="M234.917,212.289c-1.483-.193-3.239-.065-4.614-.2.195.7-.5.521-.5,1.03-1.124-.377-3.062-.147-3.83,1.069-.608-.37-.483-.535-1.282-.241.214.885-.371.988-.237,1.8a1.016,1.016,0,0,0,1.788-.532c1.084.582,1.007-.591,2.051.232.217-.21.145-.7.5-.773.5.089,1.411,1.209,1.276-.271.5.1.216.989,1.033.758-.038-.46.307-.545.245-1.027,1.093.054,2.188.112,2.295-.8.349.074.22.638.269,1.021,1.657-.632,2.913-.643,3.823-1.58,1.271,1.5,2.332.184,3.6,1.24a.707.707,0,0,0,.5-.775,1.8,1.8,0,0,1,.521.763c1.071-.818,1.182.309,2.043-.535.21-.82-.413-.788-.528-1.275-1.23.983-1.23-.085-2.309-.485a1.444,1.444,0,0,0-.245,1.027c-.28-1.276-1.952-.295-1.808-1.516-.671-.063-1.1.107-1.017.779-.434-.84-2.474-.046-2.053-.488-.49-.7-1.476.225-1.526.786" transform="translate(-27.429 -25.812)" fill="#000000" fill-rule="evenodd"/>
      <path id="Path_957" data-name="Path 957" d="M264.9,214.322c.686-.728.635-.211,1.537-.018.011-1.437,1.559.19,1.521-1.3.927.83,1.713.388,2.832,1.247a1.672,1.672,0,0,0,.241-1.282,1.289,1.289,0,0,1,.778.759c.7-.585,2.216-.365,2.287-1.563a4.407,4.407,0,0,1,.78,1.016c.449-.068.579-.447.5-1.031.686-.184.5.523.777.761.449-.068.579-.449.5-1.031,1.469.751,2.483-.415,4.356.205.675-.88-.075-2.034-.289-2.814-.884.329-.462.751-.753,1.289-1.146-.172-2.154.7-2.563-.227-.846,1.429-1.785-.04-2.289,1.307-.528-.065-.52-.678-.78-1.015-.62.544-.542.371-1.533.274-.376,1.4-1.571.615-2.809.8a3.392,3.392,0,0,1-.247.771c-.021,0-2.912-1.069-3.072.035-.032-.873-2.133-.187-3.078-.476-.241-.075-.276-.87-1.031-.5a3.589,3.589,0,0,0-.251.517c-.829.039-.386-.786-1.031-.5-.865.381-1.684,1.088-1,2.317,1.686.322,3.113-1.016,4.615.459" transform="translate(-31.78 -25.577)" fill="#000000" fill-rule="evenodd"/>
      <path id="Path_958" data-name="Path 958" d="M252.07,213.69a19.578,19.578,0,0,1,4.349-.3c.1-1.395-2.329-.209-2.069-1.77-1.323.3-1.367-.261-2.563-.226-.572.661-.082,1.806.283,2.3" transform="translate(-30.74 -25.835)" fill="#000000" fill-rule="evenodd"/>
      <path id="Path_959" data-name="Path 959" d="M257.042,208.888c.919-.887,1.907-.147,2.546-1.309.4,1.529,1.708-.583,2.059,1,.865,0,1.1-.608,1.525-1.042.42.987,2.388,1.015,2.824.48.368.054.1.764.52.762,1.412-1.071,3.256.466,4.082-1.326a1.125,1.125,0,0,1,.525,1.017c1.341-.619,1.6-1.83,3.061-1.059a1.438,1.438,0,0,0,.243-1.027c1.174.384,1.5-.546,2.553-.8,1.425,1.2,3.73.87,3.823-1.581-2.114.011-4.373.612-6.395.585-.478,1.566-3.18.219-4.075,2.1-.563-.719-1.517-.225-2.045.28-.493-.1-.212-.991-1.032-.758a1.438,1.438,0,0,0-.244,1.027c-1.049-1.354-2.784.879-3.338-.729-.8-.112-.668.7-1.271.783-.494-.02.386-.959-.271-1.277-.506.264-1.088.456-1.268,1.038-.64-.488-1.532-.693-1.791.276-.679-1.42-3.272-.588-3.351-2.011a.963.963,0,0,0-1.014,1.036c-.226-.688-1.422-1.143-1.535.018-.364-1.23-1.587.026-1.806-1.259-1.495.543-.227,2.1.287,2.813.6-.38.567-.643,1.023-.012.676.07.838-.363.758-1.033.528.065.252.952.779,1.016.91-.951.73-.282,1.278-.269.438.01.479-.146.506-.519.176.769,1.18.694,1.045,1.78" transform="translate(-30.635 -24.933)" fill="#000000" fill-rule="evenodd"/>
      <path id="Path_960" data-name="Path 960" d="M224.939,208.752c.836.059,1.229-.317,1.269-1.038.652.126,1,.427,1.018-.523.2.831,1.142,1.039,1.28-.015,1.444,1.1,4.129-.907,5.633-.065a1.435,1.435,0,0,0,.245-1.026c.474.033.167.866.524,1.017.49-.41,2.123-.757,2.561-.029a.706.706,0,0,0,.5-.773c.493.1.212.99,1.032.757a1.126,1.126,0,0,1,.5-1.031c.532.061.082,1.124.526,1.276,1.324-1.077.845.479,2.309.485,0-.256-.005-.512-.009-.769.873-.2.339,1.038,1.29.755.24-.614.825-1.649.228-2.309-1.318.759-3.643-2.607-4.866-.2a1.805,1.805,0,0,1-.521-.763c-.617.786-2.395.286-2.815.289l.006.513c-.683,0-.836-.929-1.8-.492-.593.269-.486.724-.76.775-.341.067-.859-.554-1.285-.5-.41.057-.707.984-1.024.011-1.462,1.326-2.8,1.174-4.344.819-.349,1.374-2.218.79-1.5,2.833" transform="translate(-27.471 -24.979)" fill="#000000" fill-rule="evenodd"/>
      <path id="Path_961" data-name="Path 961" d="M258.652,201.985c2.2-.057,1.847-.515,4.1-.3.1-.488.543-.65.5-1.287-.241-.27-.945-.068-.777-.759-.8.618-1.3-.039-1.784.788-.34-.825-1.152-.242-1.792.02-.59.086-.292-.736-.777-.758-.629,1.084-1.361-.749-1.787.533-.121-1.324-2.048-.837-3.081-.734-.209.022-.707-.5-.775-.5-.483.012-.806.542-1.019.524-.6-.052-.946-.477-1.284-.5,0,0,0,.512.006.512-.511.025-2.006-1.34-2.309-.229-.393-.634-.644-1.412-1.806-1.26a1.126,1.126,0,0,1-.5,1.03c.4.8,1.615.767,1.813,1.773.766-1.05,2.114.851,3.067-.548.359.6,1.353,1.094,1.8.235.385.3,1.148.209,1.036,1.013.932-.373,1.377.35,1.786-.533.3.038.223.465.265.766.807.111,1.044-.331,1.272-.784.342.765,1.1.454,1.538-.018.45.057.587.435.521,1.018" transform="translate(-30.011 -24.2)" fill="#000000" fill-rule="evenodd"/>
      <path id="Path_962" data-name="Path 962" d="M275.4,201.7c.265-1.433,2.415-1.723,2.807-.8.2-.816,1.591-.47,1.779-1.3.147.476,1.313.939,1.02-.267a3.633,3.633,0,0,0,1.8.747c-.08-.669.081-1.1.757-1.033a3.967,3.967,0,0,0-.535-2.042,2.352,2.352,0,0,0-1.269,1.038,4.224,4.224,0,0,0-1.8-.492c-.168.849-1.452.607-1.26,1.808-1.068-.81-1.966-.094-3.078-.478.075.749-.569.793-.494,1.542-.458-1.467-1.434.551-1.8-1-.56-.04-.814.219-.76.776-.379-.473-.5-1.21-1.548-1.006-.084.677-.606.929-1.528.786a2.177,2.177,0,0,0,.275,1.533c.671.065,1.1-.106,1.016-.78a1.177,1.177,0,0,0,2.051.233c.342.764,1.1.455,1.537-.018-.07.676.363.837,1.032.756" transform="translate(-32.935 -24.077)" fill="#000000" fill-rule="evenodd"/>
      <path id="Path_963" data-name="Path 963" d="M239.456,199.955c.918-.6.423-1.071.744-2.057-.652-.415-1.833.5-1.55-1.263-.861-.165-.932.441-1.014,1.037-.521-.049-1.392-.5-1.794-.236-.037.024.038.51.006.512-.255.022-.438-.5-.518-.506-1.059-.02-1.8,1.1-3.056,1.571-.514-.995-1.059-.154-1.533.275.284-.753-1.693-.478-2.044.278a4.24,4.24,0,0,0-1.8-.491,2.072,2.072,0,0,1-2.034,1.3c.36.323.171,1.208.53,1.531,1.39-1.364,3.639-.47,4.592-1.589.042-.049.6.341.517.506.446-.241.886-.487.755-1.29,2.246,1.02,4.428-1.2,6.665.693.081-1.228.205-.267,1.533-.274" transform="translate(-27.482 -24.029)" fill="#000000" fill-rule="evenodd"/>
      <path id="Path_964" data-name="Path 964" d="M266.01,195.9a2.306,2.306,0,0,0,1.012-1.036,1.809,1.809,0,0,1,.521.762,2.522,2.522,0,0,0,1-2.316,1.127,1.127,0,0,1-1.03-.5c-.448.237-.459.9-.754,1.289-.555.051-.127-.908-.27-1.277-1.347.424-1.46,1.059-2.546,1.309-.434-.442-2.538-1.016-3.076-.22a1.79,1.79,0,0,1-.52-.763c-.506.426-.889.727-1.282.015-.676-.07-.654.542-.756,1.031-.384-.829-1.565-1.76-2.314-.74-.117.808.471.9.276,1.788.973-.018,1.2-1.071,1.287.5,1.038-.463,1.987.473,2.037-1.048,1.438,1.8,5.223.094,6.416,1.208" transform="translate(-31.285 -23.565)" fill="#000000" fill-rule="evenodd"/>
      <path id="Path_965" data-name="Path 965" d="M274.868,194.5c.947-.266.663-.554,1.788-.276-.171-1.466,1.328.17,1.525-1.042a.706.706,0,0,1,.521.763.962.962,0,0,0,1.013-1.036c.861.31,2.378.042,2.548-1.054.279.061.18.507.518.507.844-.019.972-.74,1.007-1.548a9.051,9.051,0,0,1-1.541-.5c-.208.726-1.165.719-1.261,1.552-1.3-1.1-1.419.894-2.309-.231-.691-.168-.488.535-.758.778-.183-.608-1.429-.775-1.278.269a13.842,13.842,0,0,0-2.051-.232c-.218.208-.144.7-.5.773-.112.806.7.669.784,1.272" transform="translate(-33.496 -23.259)" fill="#000000" fill-rule="evenodd"/>
      <path id="Path_966" data-name="Path 966" d="M226.386,189.573c.478-.376,1.128-.585,1.006-1.548.51,0,.334.7,1.031.5a1.449,1.449,0,0,0,.246-1.028c.384.4,1.146.271,1.017-.523.384.4,1.147.271,1.018-.524,1.732-.013,2.6.319,4.343-.819.25,0,.2.312.262.51.558.04.813-.219.758-.777.808.276.679.112,1.278-.27.18.592,1.167.36,1.292,1.009.73-.667,1.921-.628,3.066-.547.249.018.2.3.262.509,1.046.095,1.612-.281,1.523-1.3-.56-.208-1.291.02-1.549-1.007-.8.3-.578.03-1.536.018.077.413-.236.443-.248.771-2.117-1.744-5.646.436-8.191.35-.129.38-.371.65-.5,1.03-.349-.076-.22-.639-.268-1.021l-1.281.015c.2.786-.7.5-.5,1.285-.521-.621-1.195-.486-1.274.527-.509,0-.334-.694-1.03-.5.161,1.257-1.349.878-1.516,1.811.013.763.676.864.786,1.527" transform="translate(-27.572 -22.459)" fill="#000000" fill-rule="evenodd"/>
      <path id="Path_967" data-name="Path 967" d="M271.686,188.872c.772-.763,2.443-.65,2.8-1.823a10.845,10.845,0,0,0,4.6-.822c.509,0,.333.7,1.03.5-.219-.72.355-.666.241-1.282.4,1.593,1.3-.37,1.8.748a1.632,1.632,0,0,0,1-2.061c-1.254.676-1.528-.064-3.076-.219.2,1.041-1.657.068-1.265,1.294-1.391-.655-2.539.309-3.835.557a1.945,1.945,0,0,1-1.027-.245c-.4.1-.454.657-.759.777-.875.344-2.055-.4-2.555.542-.153-1.1-1.724.238-1.545-.75-.654.035-.892.479-1.272.782a3.651,3.651,0,0,0-2.059-1c.1.434-.195.485-.506.518.1.762.165,1.558.788,1.784.916.387.144-.872.759-.778.274.183.039.771.528,1.275.889-.862,2.127.189,2.548-1.053-.008,1.044,1.6.437,1.807,1.259" transform="translate(-32.418 -22.477)" fill="#000000" fill-rule="evenodd"/>
      <path id="Path_968" data-name="Path 968" d="M255.112,187.577c1.942-.216,2.064-1.1,4.094-.3.114-.9.286-.845-.017-1.536-.829.119-2.219-.311-2.3.539-.234-.449-.724-1.26-1.026-.246-.348-.074-.219-.637-.268-1.021-.818-.209-.97.234-1.275.527-.719-.243.365-.688-.267-1.021-1.152.2-.831.7-1.793.02-.1.488-.543.65-.5,1.287-.532-.06-.082-1.125-.527-1.275-1.232.061-2.019.559-2.029,1.816,1.253-.147,2.595,2.055,2.819-.032a1.291,1.291,0,0,1,.775.758c.45-.065.578-.447.5-1.03.918.2-.094.9.784,1.272.915.387.145-.871.758-.778.348.076.22.64.269,1.022" transform="translate(-30.457 -22.551)" fill="#000000" fill-rule="evenodd"/>
      <path id="Path_969" data-name="Path 969" d="M261.828,182.04c.621-.151,1.314-.234,1.268-1.038.565-.175.371.521.774.5.54-.025.93-1.266,1.275-.528.255.549.743.32,1.8.749a1.439,1.439,0,0,0,.242-1.027c.139.293,1.226,1.48,1.284.241.069.706,1.267.258,1.545.751.526-.078.5-.691.755-1.033a.91.91,0,0,0,1.537-.018c.168.435.779.412,1.034.756.239-.434.841-.808,1.024-.011.9-.782,2.353-1.37,3.322-.55.528-.274,1.99-1.947,2.3-.794.809.115.571-.793,1.531-.529-.011-.68.079-1.464-.277-1.79-.24.619-.779-.277-1.027-.244-.42.056-.951.98-2.034,1.3-.483.143-3.555-.357-3.318,1.062-.36-1.135-1.02-.625-1.536.018-.18-.5-1.171-.8-1.28.015-.3-.039-.221-.464-.265-.765-.781.195-.936-.251-1.539-.239-.068.729-.545.792-1.015.78-.524-.013-.906,1.324-1.274.527-.034-.071.053-.479-.006-.512.421.232-1.5-.268-1.8-.237a2.707,2.707,0,0,0-.248.516c-.522.018-.564-.478-.775-.5-.643-.083-.923.54-1.018.523-.283-.051-.176-.5-.518-.506-.692-.006-.2.69-.759.778-.076.012-1.324-1.471-1.8-.236-1.148-1.056-3.2-2.015-4.622-.972-.189.577,1.192.8.271,1.278.719.754,1.951.29,2.822.48.687.149,1.11.948,1.8.492a1.807,1.807,0,0,1,.521.761" transform="translate(-31.336 -21.69)" fill="#000000" fill-rule="evenodd"/>
      <path id="Path_970" data-name="Path 970" d="M228.272,181.445c-.3-.522.387-1.226.506-.518.665-.363.37-1.667,1-2.06.349.075.22.638.269,1.022.8.11.715-.653,1.013-1.037a.705.705,0,0,1,.521.762c1.144-.751.8-.4,2.043-.535-.078-.583.05-.963.5-1.031.355.253-.105.424.521.764.371-.228.808-.393.756-1.033,1.221,1.756,3.56-.551,4.874.712.654-.036.89-.479,1.271-.782.126.649.819.715,1.292,1.009.707.1.229-.958.756-1.032a1.659,1.659,0,0,0,1.8,1,1.206,1.206,0,0,0,.247-.772c.517,1.379,1.222-.383,1.548,1.006.336-.093.4-.455.764-.521.008-1.217-1.283-1.105-1.814-1.771-.557-.04-.811.219-.758.777-.349-.076-.22-.638-.269-1.022-.78.2-.758-.433-1.54-.238-.043,1.282-2.1.2-2.8,1.312-.743-1.219-2.364.64-2.575-1.251a1.4,1.4,0,0,0-1.013,1.036c-.95.109-.682-1.031-1.8-.748.039.459-.307.543-.243,1.026a1.123,1.123,0,0,1-.525-1.018c-.751.027-.944.6-1.268,1.039-.359-1.139-.614.13-1.023.269-.266.09-.413-.491-.518-.506-.815-.124-1.119,2.058-1.788.276a2.313,2.313,0,0,1-2.549,1.053c.037.46-.308.543-.245,1.028-1.139-1.106-2.182.43-2.283,1.819,1.058,1.325,2.1-.681,3.328-.038" transform="translate(-27.492 -21.524)" fill="#000000" fill-rule="evenodd"/>
      <path id="Path_971" data-name="Path 971" d="M260.792,175.655c.992-.55,1.822-.2,3.582-.3-.076-.749.57-.794.5-1.542-.3-.039-.455.061-.51.262-.256-.5-1.536-1.271-1.8-.234-.3-.039-.221-.466-.263-.766q-.841-.061-.761.778c-1.19-1.471-3.612-.091-4.629-1.741-1.447-.547-1.992.878-2.309-.486-.585-.064-.963.074-1.019.525-1.722-1.1-2.995-.834-5.13-.709.057,1.983,2.175.831,2.583,2.019.771-.889,1.232.382,1.787-.533a1.81,1.81,0,0,1,.521.761c.923-.3,3.121-.923,3.853.98,1.081-.924,2.74-.2,3.6.984" transform="translate(-30.365 -20.938)" fill="#000000" fill-rule="evenodd"/>
      <path id="Path_972" data-name="Path 972" d="M275.432,175.519c.671.064,1.1-.106,1.016-.779.229.111.462.22.518.506,1.21-1.822,3.03-.532,4.858-.825-.265.043,1.113-1.179,1.785-.532q-.014-1.152-.027-2.3c-.363.027-.724.05-.77-.248-1.227,1.771-2.754.761-4.076,1.84-.28-.061-.18-.507-.518-.506-.678-.071-.656.542-.758,1.033-.6-1.009-1.586.977-1.54-.24-.362-.018-.725-.032-.765.266-.711-1.1-2.21-.4-2.317-1-.235.277-.943.09-.758.777-.472-1.01-1.448-.056-2.3.025.176.685.743.966,1.041,1.525.322-.36,1.254-.124,1.273-.782.666.268.961.915,1.8,1,.013-1.037,1.043.646,1.53-.529,0,.255.006.513.009.767" transform="translate(-32.971 -20.94)" fill="#000000" fill-rule="evenodd"/>
      <path id="Path_973" data-name="Path 973" d="M225.093,175.547c.779-.421,1.631-.771,1.773-1.814.85.679.6-.613,1.537-.018-.113-.615.461-.561.241-1.282.525.154.086,1.293,1.036,1.011-.114-.534.168-.68.245-1.026.4.1.227.8,1.03.5-.114-.535.168-.682.244-1.027,1.487-.125,4.286.028,5.881-.837,1.191.331,3.034,1.189,4.612.2-.011-.681.08-1.464-.276-1.791a37.534,37.534,0,0,1-7.164.594c-.459.909-1.765.341-2.813.289-.115,1.366-1.739-.228-1.777,1.3-.351-.837-1.392-.478-1.274.527-.693-1.008-2.777,1.123-3.822,1.837a5.7,5.7,0,0,1,.529,1.53" transform="translate(-27.445 -20.712)" fill="#000000" fill-rule="evenodd"/>
      <path id="Path_974" data-name="Path 974" d="M272.748,169.19c.587-1.976,3.544.187,4.331-1.842.349.075.22.638.269,1.022,1.785-.494,2.637-1.1,4.349-.307.134-.976.685-1.691.227-2.563-2.072-.246-3.11,1.073-4.351.306-.435.334-1,.54-1.009,1.292-.349-.076-.22-.639-.268-1.022-2.755,1.735-6.111.973-9.205,1.129-.7-1.075-2.315.32-3.341-.986-.708-.1-.23.958-.756,1.032.233.452,1.041.315.781,1.273,1.3-.19,3.14,1.043,3.839-.3.589-.085.292.736.776.759.642.036.8-.4,1.016-.779.18.5,1.174.8,1.282-.015.59.432.755,1.3,2.06,1" transform="translate(-32.142 -20.223)" fill="#000000" fill-rule="evenodd"/>
      <path id="Path_975" data-name="Path 975" d="M256.985,168.308c1.495-.959,1.143-2.244-.281-2.3.229.01-.463,1.1-.26-.252-1.354.174-1.637.187-2.06-1-.336.094-.4.456-.764.521-.126-.734-1.028-.676-1.294-1.267-.7-.178-.51.515-1.018.524-.359-.322-.741-1.244-1.028-.244-.473-.033-.167-.866-.523-1.018q-.839-.061-.76.776c-.93-.931-1.595.314-3.078-.477.285.952-.955.416-.753,1.29.443.436,1-.389,1.033.756,1.312-1.005,2.216.654,3.064-.8.686.568,1.637,1.375,2.309.485.256,1.153,1.461,0,1.3,1.265,1.737-.521,2.728,1.138,4.117,1.747" transform="translate(-29.96 -19.953)" fill="#000000" fill-rule="evenodd"/>
      <path id="Path_976" data-name="Path 976" d="M225.628,168.4c1.616.2,1.512-1.047,2.812-.544-.115-.535.168-.679.244-1.028.191.179,1.26.624,1.021-.266,1.243,1.106,3.658-1.643,4.093-.3.619.1.551-.475,1.279-.27-.115-.535.168-.681.243-1.027.3.038.222.463.267.765,1.365-.741,1.953.7,3.07-.291-.47-.913.011-.779,1.015-.78a1.211,1.211,0,0,1-.266-.765c-.635.044-1.241.061-1.285-.5-.531.155-.822.547-1.272.782-.431-.831-.312-.057-.767.009a3.367,3.367,0,0,0-2.305.026c-.164.083-.351.732-.5.774-.131.036-.635-.3-1.027-.244-.919.136-2.625.814-3.579.553-.143,1.437-1.711,1.047-3.064.8-.5.539-.176,1.7.026,2.3" transform="translate(-27.54 -19.969)" fill="#000000" fill-rule="evenodd"/>
      <path id="Path_977" data-name="Path 977" d="M225.3,162.283c1.849-.031,2.3-1.365,3.569-1.321.058-.752-.588-.78-.53-1.531-1.248.077-1.073.984-2.3.539-.075.939-1,1.044-.74,2.313" transform="translate(-27.529 -19.485)" fill="#000000" fill-rule="evenodd"/>
      <path id="Path_978" data-name="Path 978" d="M270.952,161.659c1.331-.952,1.893.148,2.548-1.053.51-.113,1.091.707,1.546.751.309.03.349-.47.506-.518.421-.134.564.341,1.028.244.056-.012.236-.514.248-.515.907-.068,1.325.679,1.531-.529.538.562,2.586.809,2.814-.288a6.213,6.213,0,0,0,1.037,1.012c.478-.629,1.131-1.088,1-2.316-.678-.393-2.086-.726-2.3.538-3.116-.09-4.369.951-7.169.082.2.786-.7.5-.5,1.286-.077-.713-1.333-1.227-1.28.016-.359-1.028-1.155-1.1-2.054-.489-.177.785.451.746.273,1.534.363-.026.724-.052.772.246" transform="translate(-32.983 -19.321)" fill="#000000" fill-rule="evenodd"/>
      <path id="Path_979" data-name="Path 979" d="M265.267,159.348a6.362,6.362,0,0,1-3.333-.219c-.13.379-.37.65-.5,1.031-.376-.394-.858-.678-1.039-1.268-.8-.018-.722.813-1.786.533-.992-1.385-2.971-1.293-5.143-1.735.037.8-.8.74-.491,1.8,1.77-.1,3.3-.671,4.111,1.233,2.018-.411,4.075.827,5.89-.067,1.095.475,2.248.584,2.291-1.306" transform="translate(-30.909 -19.272)" fill="#000000" fill-rule="evenodd"/>
      <path id="Path_980" data-name="Path 980" d="M237.061,158.892c.693-.651.643-.885,1.533-.274a1.441,1.441,0,0,0,.245-1.027c.265.246.523.5.776.759,2.645-1.205,4.856-.253,6.66.179.6-.607-.055-1.257-.023-2.049-1.189.242-.817.685-1.286-.5-.69-.169-.489.535-.759.776-.4-.939-.927-.259-1.291-1.009-1.189,1.527-4.322.028-5.364,1.343-1.921-.291-4.679-1.117-5.867,1.86,2.417.309,3.444-1.626,5.376-.061" transform="translate(-28.316 -19.035)" fill="#000000" fill-rule="evenodd"/>
      <path id="Path_981" data-name="Path 981" d="M267.47,154.844c.208-.184.949-1.5,1.021-.267,1.314-1.107,2.315-.22,4.094-.3-.312-.334-.105-.4-.009-.77.674,1.158,2.349-.5,2.573,1,3.136-.712,5.211-1.714,7.151-1.618a4.4,4.4,0,0,0-.542-2.554c-1.044.162-1.822.582-2.03,1.56-.681-.511-.824.3-1.531.529-.972.312-1.913,0-3.073.035a6.012,6.012,0,0,0-1.533.273c-.25,0-.2-.312-.263-.509-1.317.266-2.546.549-3.584.04-.937-.233-.2.661-.759.778-.6.125-1.762-1.325-2.305.026-.271-.425-1.009-1.269-1.282-.241a1.807,1.807,0,0,1-.521-.763c-1.136.57-2.717.252-3.081-.733-.643-.035-.8.4-1.016.78-.347-.075-.219-.638-.267-1.022-.988.276-1.056-.121-1.791.276-.176.786.452.748.275,1.534,1.364.305,2.212-.425,2.569.739.334-.264.942-.262,1.275-.527.66.054-.348.444.011,1.024,1.079.074,1.824-1.071,2.05.234.914-.663,2.211-.642,2.568.481" transform="translate(-31.616 -18.373)" fill="#000000" fill-rule="evenodd"/>
      <path id="Path_982" data-name="Path 982" d="M270.322,147.558c.483-.311,1.742-1.315,2.046-.28a.707.707,0,0,0,.5-.773c.265.117.2.433.518.506.579.133.348-.506.506-.518.074-.007,1.066,1.162,1.022-.269.533.6,1.836.339,2.557-.284a1.8,1.8,0,0,1,.521.761.705.705,0,0,0,.5-.773c.248,0,.2.312.262.509,1.525-.423,2.584-1.878,3.821-1.836.2-.726-.37-.659-.272-1.277-1.887.2-2.735-.027-3.569,1.32-1.471-.592-3.569,1.569-4.349.306a.706.706,0,0,0-.5.773c-1.039-.483-3.315.036-4.349.307-.4-1.292-1.929.133-2.064-1.257a.707.707,0,0,0-.5.774c-1.431-.826-2.815-.442-4.873-.714.015.649-.954,1.77.03,2.561,1.192-1.565,5.263.606,6.133-1.095.474.034.166.867.523,1.018.453-.062,1.285.244,1.019-.524a1.819,1.819,0,0,1,.521.764" transform="translate(-31.982 -17.516)" fill="#000000" fill-rule="evenodd"/>
      <path id="Path_983" data-name="Path 983" d="M225.7,147.684a4.587,4.587,0,0,1,3.064-.8c-.038-.459.306-.542.243-1.027.543.709,1.358-.4,1.788-.533.234-.075.251.513.261.51.278-.078.3-.712.5-.775.719-.224,2.373.489,2.549-1.054.4.366.517,1.026,1.546.752.512-.727.447-1.056.233-2.052-2.285.543-4.255,1.187-6.9,1.616a1.2,1.2,0,0,0-.248.77c-1.893.316-3.791-.086-3.043,2.6" transform="translate(-27.564 -17.441)" fill="#000000" fill-rule="evenodd"/>
      <path id="Path_984" data-name="Path 984" d="M252.789,145.853c.351-1.058,2.263.72,3.326-.294.453-2.018-2.509-.542-2.584-2.019-.227.116-.455.23-.507.518a1.813,1.813,0,0,1-.521-.763c-.928.518-2.6-.09-3.583.3a1.821,1.821,0,0,1-.521-.763c-1.1,1.074-3.275-1.145-4.606.309-.6-.075-.965-.394-1.793-.236a4.181,4.181,0,0,0,.532,1.787c1.278-.049,2.164.454,2.81-.544.353.076,1.558,1.14,1.536-.018.515.415.906.707,1.281-.015.554.642,1.616.765,2.318,1.253a.7.7,0,0,0,.5-.773,4.409,4.409,0,0,1,.78,1.016c.336-.337.949-.348,1.027.244" transform="translate(-29.576 -17.431)" fill="#000000" fill-rule="evenodd"/>
      <path id="Path_985" data-name="Path 985" d="M240.063,137.7c.3-1.171-.908-.8-1.043-1.525-1.454.934-3.831-1.309-4.864.057-.249,0-.2-.312-.262-.511-.792.071-.986.725-1.526,1.043-.794.036-.739-.8-1.8-.492-.434,3.078-6,.384-6.1,4.167.818.672,1.8-.114,2.039-.792,3.12-.427,3.461-1.16,5.868-1.86.25,0,.2.312.262.51,2.082-.9,4.771-.7,7.42-.6" transform="translate(-27.434 -16.588)" fill="#000000" fill-rule="evenodd"/>
      <path id="Path_986" data-name="Path 986" d="M258.858,140.1l1.024-.011c-.29-.312-.229-.523.251-.515-.09-.6-.417-.957-.277-1.79a2.1,2.1,0,0,0-1.784.789c-.411-.876-1.658-.892-2.575-1.252a1.807,1.807,0,0,0-.5.775,1.812,1.812,0,0,1-.521-.763c-.628.5-1.514.727-1.794-.236-1.739,1.462-3.044-1.073-4.872-.456-.37-.054-.1-.765-.521-.765-.954-.087-.46,1.24-1.266,1.3.777.455.548,1.188,1.295,1.265.471.049.647-.523.763-.521.33.01,1.27,1.09,1.279-.015.8,1,3.346.205,4.112,1.234a.7.7,0,0,0,.764-.521c.723.522,1.9.883,2.563.226.371,1.185,2.246,0,2.063,1.256" transform="translate(-30.068 -16.606)" fill="#000000" fill-rule="evenodd"/>
      <path id="Path_987" data-name="Path 987" d="M224.538,223.22c1.253-.076,1.225-.094,1.782-1.044a.7.7,0,0,1,.773.5c.608-.3,1.056-1.551,1.772-1.814,1.252-.461,3.972.385,4.6-.821.834.082,2.241.966,3.07-.291,1.351,1.279,3.344-.171,4.873.713q-.009-.768-.018-1.536c-.228-.228-1.785-.379-1.033-.758-.836-.685-1.881,1.483-2.563-.225-.8.477-.715,1.068-1.525,1.04-.395-.858-2.906-.63-3.328.039-.5-.1-.214-.992-1.033-.757-.37,1.3-1.763.072-2.034,1.3-.786.2-.5-.7-1.287-.5-1.023.4-1.94,1.9-3.826,1.324.158,1.167-.435,1.6-.224,2.819" transform="translate(-27.436 -26.637)" fill="#000000" fill-rule="evenodd"/>
      <path id="Path_988" data-name="Path 988" d="M225.1,195.6c.486-.2,1.3.085,1.536-.018.263-.114.412-.74.5-.774.253-.092,1.613.6,1.271-.782a1.3,1.3,0,0,1,.777.759c.567-1.666,1.768.268,2.031-1.56.545-.125.492.36.521.763,1.081-.8,1.651-.776,3.07-.292-.052-.64.384-.8.756-1.033a1.821,1.821,0,0,1,.521.764c.868-1.262,2.785-.255,4.088-.815.63,1.182,2.218.386,2.316,1,.671-.291,1.735-.923,1.8.492,1.236-.833,2.28.239,3.587.216.8-.066.419-1.279.488-2.054-.712-.113-1.72.909-1.542-.494-.67-.064-1.1.106-1.015.779-.208-.175-.706-.39-.768.008-.3-.037-.222-.463-.265-.765-2.669.16-4.88-1.276-6.919-.433-.049.02.055.5.006.513-.226.061-1.365-.826-1.531.529-.348-.076-.219-.639-.268-1.022-.836-.056-1.23.318-1.268,1.038a1.124,1.124,0,0,1-.523-1.017c-1.126,0-1.431.794-2.035,1.3-.348-.075-.219-.638-.268-1.022-1.206.5-1.647.36-2.546,1.311-.317-.858-1.72-.1-2.042.535-1.048-.754-1.372-.027-2.3.539q.008.768.018,1.535" transform="translate(-27.509 -23.355)" fill="#000000" fill-rule="evenodd"/>
      <path id="Path_989" data-name="Path 989" d="M225.992,155.012c1.654-1.18,3.294-.821,4.323-2.611.242.155.952.586.765-.264,1.379-.323,1.366.778,2.309.23.422-2.646,3.56-.01,3.817-2.093.807.514,1.6-.248,2.3-.282.855-.041.688.862,1.279-.014.466,1.44,2.776-.094,3.344,1.241.859-.824,1.871.708,2.3-.538,1.755.744,3.695.5,5.653,1.728.8-.568.252-2.143-.287-2.814a.708.708,0,0,0-.5.774c-.645-1.258-2.509-.009-3.085-.988-.437-.089-.48.205-.506.518-.571-.193-1.39-.132-1.544-.752-1.123,1.238-2.449-1.148-3.323.551a7.456,7.456,0,0,0-4.115-1.49c.039.459-.307.544-.244,1.028-.447.082-.558-.366-1.027-.245-.187.048-.5.774-.5.775-1.235.252-3.171-.618-3.832.812-.147-.474-1.315-.939-1.022.267-1.072-.4-1.942-.1-2.289,1.308-1.295-1.081-2.7,1.618-4.591,1.588-.112.806.7.669.782,1.271" transform="translate(-27.523 -18.113)" fill="#000000" fill-rule="evenodd"/>
      <path id="Path_990" data-name="Path 990" d="M266.4,141.075c1.965-1.5,3.757.418,5.11-1.082a18.189,18.189,0,0,0,6.152.442c.291-.05.715-.743,1.016-.779.228-.028,1.446.491,2.051.233.788-.336.574-1.171,1.522-1.3-.193-.9-2.882-.475-3.84.044-.394-.545-1.69-.87-1.79.276-.683.01-.566-.8-1.289-.752-.957,1.558-3.491.168-5.115.571-.159.039-.539.779-.5.772a7.771,7.771,0,0,1-3.849-.722c-.4.837.383,1.326.537,2.3" transform="translate(-32.479 -16.874)" fill="#000000" fill-rule="evenodd"/>
      <path id="Path_991" data-name="Path 991" d="M345.62,372.43A172.5,172.5,0,0,0,358.3,355.108a13.506,13.506,0,0,1-3.512,1.183c-.008.011-.015.025-.023.036V356.3a207.05,207.05,0,0,1-22.534-.128,140.363,140.363,0,0,1-24.434-3.74,94.638,94.638,0,0,0-20.246-3.153,64.268,64.268,0,0,0-12.252.591,28.56,28.56,0,0,0-10.454,3.444,7.945,7.945,0,0,0-3.292,3.654,6.642,6.642,0,0,0-.576,3.142L260.69,377c-7.431-1.691-15.217-3.275-21.978-4.4a378.539,378.539,0,0,0-58.483-4.73v-.008l-1.08,0-1.081,0v.008a378.537,378.537,0,0,0-58.482,4.73c-6.761,1.124-14.546,2.708-21.979,4.4l-.284-16.89a6.653,6.653,0,0,0-.576-3.142,7.954,7.954,0,0,0-3.292-3.654A28.558,28.558,0,0,0,83,349.868a64.256,64.256,0,0,0-12.251-.591A94.638,94.638,0,0,0,50.5,352.43a140.376,140.376,0,0,1-24.434,3.74,207.048,207.048,0,0,1-22.534.128v.029c-.008-.011-.015-.025-.022-.036A13.5,13.5,0,0,1,0,355.108,172.505,172.505,0,0,0,12.677,372.43c4.023,4.693,9.075,9.994,13.567,14.367a140.961,140.961,0,0,0-11.938,33.345c10.986-4,20.868-6.037,32.439-5.9l5.49,16.022a7.748,7.748,0,0,0,3.839,4.044,14.41,14.41,0,0,0,4.617,1.393A21.9,21.9,0,0,0,70,434.928a309.881,309.881,0,0,1,108.069-17.278v.04l1.081-.022,1.08.022v-.04A309.886,309.886,0,0,1,288.3,434.928a21.9,21.9,0,0,0,9.308.779,14.4,14.4,0,0,0,4.617-1.393,7.755,7.755,0,0,0,3.839-4.044l5.49-16.022c11.571-.142,21.451,1.9,32.439,5.9A141.036,141.036,0,0,0,332.054,386.8c4.491-4.372,9.543-9.674,13.566-14.367m-82.738,3.047c4.84,2.489,10.4,3.041,15.763,3.433a.629.629,0,0,0,.092-1.255,88.6,88.6,0,0,1-8.967-1.118,22.229,22.229,0,0,1-6.864-2.472l.036-2.183a25.771,25.771,0,0,0,13.225,3.652.628.628,0,1,0,.047-1.256,33.212,33.212,0,0,1-7.552-1.165,22.986,22.986,0,0,1-5.693-2.707L263,368.6c4.8,2.879,10.043,3.717,15.684,3.812a.629.629,0,0,0,.021-1.259,43.438,43.438,0,0,1-8.906-1.073,22.851,22.851,0,0,1-6.774-2.948l.047-2.848a6.527,6.527,0,0,0,.592.449c1.288.892,3.53,3.9,19.545,4.427q5.55-.041,11.088-.461a52.632,52.632,0,0,1,14.5,1.162,27.694,27.694,0,0,1,7.445,2.833c2.336,1.309,4.883,2.668,5.078,5.542a4.135,4.135,0,0,1-.979,2.65,8.5,8.5,0,0,1-2.8,2.151,22.933,22.933,0,0,1-7.912,2.062,66.258,66.258,0,0,1-17.852-1.035c-7.145-1.358-12.421-2.47-19.467-4.264-2.973-.764-6.166-1.542-9.456-2.307ZM95.275,367.133A22.856,22.856,0,0,1,88.5,370.08a43.461,43.461,0,0,1-8.907,1.073.629.629,0,0,0,.021,1.259c5.642-.095,10.885-.933,15.683-3.812l.031,1.806a23.007,23.007,0,0,1-5.694,2.707,33.212,33.212,0,0,1-7.552,1.165.628.628,0,1,0,.047,1.256,25.764,25.764,0,0,0,13.225-3.652l.036,2.183a22.216,22.216,0,0,1-6.863,2.472,88.633,88.633,0,0,1-8.967,1.118.629.629,0,0,0,.091,1.255c5.361-.392,10.925-.945,15.764-3.433l.034,2.017c-3.292.765-6.484,1.543-9.455,2.307-7.047,1.794-12.324,2.906-19.469,4.264A66.251,66.251,0,0,1,48.674,385.1a22.923,22.923,0,0,1-7.912-2.062,8.5,8.5,0,0,1-2.8-2.151,4.141,4.141,0,0,1-.98-2.65c.2-2.874,2.743-3.724,5.079-5.031a27.7,27.7,0,0,1,7.445-2.831A52.6,52.6,0,0,1,64,369.211q5.535.42,11.089.462c11.776.09,18.255-4.047,19.544-4.938a6.648,6.648,0,0,0,.593-.449ZM17.34,416.756a137.91,137.91,0,0,1,11.566-30.4c-5.261-5.083-9.8-9.824-14.584-15.338A128.115,128.115,0,0,1,4.95,358.531a209.6,209.6,0,0,0,21.254-.2,142.616,142.616,0,0,0,24.84-3.8c11.155-2.869,26.8-4.949,38.1-.918,2.334.836,4.6,1.935,5.619,4.224a4.945,4.945,0,0,1,.3,2.766c-.9,3.5-6.906,4.585-9.54,4.947-8.229,1.086-13.876.593-21.388.151-8.115-.477-20.751.757-26.926,7.2a7.137,7.137,0,0,0-1.983,7.6l-.043.014L46,412.076a88.613,88.613,0,0,0-28.661,4.679M310.928,405.38q-5.689.05-11.37-.445a.681.681,0,0,0-.118,1.357q5.5.479,11.028.454l-.731,2.169q-5.04-.012-10.073-.449a.681.681,0,1,0-.117,1.356q4.855.424,9.73.453l-.8,2.382q-4.731-.037-9.453-.448a.682.682,0,0,0-.118,1.358q4.548.4,9.112.447l-.764,2.27q-4.28-.064-8.551-.437a.682.682,0,1,0-.118,1.358q4.1.357,8.213.434l-.77,2.279q-4.148-.072-8.288-.433a.681.681,0,0,0-.118,1.357q3.967.348,7.95.429l-.517,1.533q-4.091-.075-8.171-.43a.681.681,0,1,0-.118,1.357q3.91.341,7.833.427l-.772,2.291q-4.279-.064-8.549-.437a.681.681,0,1,0-.119,1.357q4.1.357,8.211.434l-.666,1.976q-5.109-.007-10.208-.45a.682.682,0,1,0-.118,1.358q4.851.423,9.718.453c-2.257,3.236-9.3,2.886-13.105,1.735A312.241,312.241,0,0,0,181.8,415.451v.025h-5.267v-.024A312.2,312.2,0,0,0,69.306,432.875c-3.8,1.151-10.848,1.5-13.1-1.735q4.862-.032,9.717-.453a.682.682,0,1,0-.119-1.358q-5.093.445-10.208.45l-.665-1.976q4.109-.078,8.211-.434a.681.681,0,0,0-.119-1.357q-4.267.373-8.549.437l-.772-2.291q3.921-.086,7.834-.427a.681.681,0,1,0-.119-1.357q-4.079.355-8.172.43l-.516-1.533q3.98-.083,7.951-.429a.681.681,0,1,0-.118-1.357q-4.138.359-8.29.433L51.5,417.64q4.111-.078,8.213-.434a.682.682,0,0,0-.119-1.358q-4.267.373-8.55.437l-.765-2.27q4.561-.051,9.112-.447a.682.682,0,0,0-.118-1.358q-4.719.411-9.453.448l-.8-2.382q4.87-.029,9.731-.453a.681.681,0,1,0-.119-1.356q-5.026.437-10.072.449l-.731-2.169q5.52.026,11.028-.454a.681.681,0,1,0-.118-1.357q-5.674.494-11.371.445l-.991-2.941a121.049,121.049,0,0,0,13.123-.427.681.681,0,0,0-.118-1.357,119.339,119.339,0,0,1-13.467.41l-.73-2.166a111.9,111.9,0,0,0,14.959-.524.681.681,0,0,0-.122-1.357q-4.92.442-9.859.58-2.722.075-5.44-.071l-.893-2.647a56.6,56.6,0,0,0,7.779.435q4.964-.036,9.923-.471a.681.681,0,1,0-.119-1.357,83.923,83.923,0,0,1-18.058-.015l-.938-2.785c7.177,1.282,13.137.916,20.56.133a.681.681,0,0,0-.144-1.355q-5.28.558-10.59.7a54.057,54.057,0,0,1-10.324-.961l-1.1-3.275c1.788.894,4.583,1.094,7.695,1.33a68.318,68.318,0,0,0,18.426-1.069c6.415-1.179,13.268-2.669,19.6-4.292,11.039-2.832,22.187-4.477,33.416-6.418a377.527,377.527,0,0,1,58.114-4.706h2.173a377.175,377.175,0,0,1,58.115,4.334c11.229,1.942,22.377,3.959,33.415,6.791,6.33,1.623,13.183,3.114,19.6,4.292a68.316,68.316,0,0,0,18.425,1.069c3.113-.236,5.907-.436,7.7-1.33l-1.105,3.275a54.056,54.056,0,0,1-10.324.961q-5.306-.146-10.59-.7a.681.681,0,0,0-.143,1.355c7.423.784,13.383,1.149,20.56-.133l-.939,2.785a83.916,83.916,0,0,1-18.057.015.681.681,0,1,0-.12,1.357q4.952.437,9.923.471a56.567,56.567,0,0,0,7.778-.435l-.891,2.647q-2.716.146-5.441.071-4.935-.138-9.858-.58a.681.681,0,0,0-.121,1.357,111.869,111.869,0,0,0,14.957.524l-.73,2.166a119.329,119.329,0,0,1-13.466-.41.681.681,0,0,0-.118,1.357,121.017,121.017,0,0,0,13.121.427Zm18.464-19.022a137.823,137.823,0,0,1,11.566,30.4,88.612,88.612,0,0,0-28.661-4.679l10.814-31.562-.043-.014a7.137,7.137,0,0,0-1.983-7.6c-6.175-6.441-18.812-7.674-26.925-7.2-7.514.442-13.161.935-21.389-.151-2.634-.362-8.644-1.447-9.54-4.947a4.945,4.945,0,0,1,.3-2.766c1.024-2.289,3.285-3.388,5.618-4.224,11.3-4.031,26.947-1.95,38.1.918a142.571,142.571,0,0,0,24.838,3.8,209.631,209.631,0,0,0,21.256.2,128.4,128.4,0,0,1-9.372,12.489c-4.781,5.514-9.323,10.255-14.584,15.338" transform="translate(0 -42.678)" fill="#000000" fill-rule="evenodd"/>
      <path id="Path_992" data-name="Path 992" d="M95.687,398.017l.025.013.018,0,.045.007.111.03.154.038c.134.043.264.088.386.135q.233.1.47.212a3.677,3.677,0,0,1,.966.727,3.149,3.149,0,0,1,.688,1.257l4.7,16.389-6.656,8.789c-.427-.11-.863-.243-1.3-.4a16.121,16.121,0,0,1-6-3.708,12.567,12.567,0,0,1-3.311-5.195l-.076-.265a12.819,12.819,0,0,1-.375-5.669,11.478,11.478,0,0,1,.791-2.807.157.157,0,0,0,0-.081q-.087-.3-1.34-1.03-1.159-.691-3.21-1.7l2.666-3.488q1.868,1.02,2.969,1.709a4.362,4.362,0,0,1,1.268.926l.005.019a11.993,11.993,0,0,0-.743,2.834,13.762,13.762,0,0,0,.414,5.451c.074.254.15.5.231.734a12.529,12.529,0,0,0,3.456,5.051,16.146,16.146,0,0,0,6.088,3.518l1.963-2.652q-.141-.491-4.537-15.9a2.782,2.782,0,0,0-1.232-1.654,2.682,2.682,0,0,0-.849-.391Z" transform="translate(-9.993 -48.644)" fill="#000000"/>
      <path id="Path_993" data-name="Path 993" d="M106.257,398.379a3.247,3.247,0,0,0,.478.39,3.429,3.429,0,0,0,.737.37,2.655,2.655,0,0,0,1.428.04,3.392,3.392,0,0,0,.814-.319,5.325,5.325,0,0,1-1.2,2.4,2.871,2.871,0,0,1-1.44.915,3.933,3.933,0,0,1-3.173-.977Zm5.891,16.117a2.823,2.823,0,0,0,1.14,1.709,2.667,2.667,0,0,0,.832.427l-2.344,2.793-.025-.015-.018,0-.043-.01-.109-.034-.154-.044c-.133-.049-.259-.1-.381-.151a4.523,4.523,0,0,1-.441-.239,3.162,3.162,0,0,1-.936-.766,3,3,0,0,1-.652-1.281l-2.154-8.938a2.833,2.833,0,0,0-1.142-1.709,2.677,2.677,0,0,0-.833-.427l2.325-2.788.018,0,.044.01.043.01.111.034.152.045c.118.039.243.09.38.151s.3.144.437.218a3.593,3.593,0,0,1,.936.768,3.139,3.139,0,0,1,.657,1.3Z" transform="translate(-12.698 -48.688)" fill="#000000"/>
      <path id="Path_994" data-name="Path 994" d="M121.884,417.617a11.183,11.183,0,0,1-3.538-1.43,3.82,3.82,0,0,1-1.888-2.1l-1.669-7.957a2.033,2.033,0,0,0-.4-.843,2.972,2.972,0,0,0-.624-.573,3.528,3.528,0,0,0-.814-.433l2.406-2.718a3.4,3.4,0,0,1,1.289.777,5.212,5.212,0,0,1,.872,1.084,6.6,6.6,0,0,1,.668,1.368l1.828,8.809q.175.828,1.429,1.249l1.56-1.775q-.5-2.39-1.649-7.962a2.833,2.833,0,0,0-1.092-1.743,2.94,2.94,0,0,0-.837-.447l2.428-2.722.022.016.019,0,.043.011.109.039.15.048c.133.053.256.107.377.162a3.188,3.188,0,0,1,.454.247,3.67,3.67,0,0,1,.911.8,3.14,3.14,0,0,1,.594,1.3l2,9.557Z" transform="translate(-13.805 -48.911)" fill="#000000"/>
      <path id="Path_995" data-name="Path 995" d="M133.76,408.289a7.671,7.671,0,0,0,.722,1.217,5.816,5.816,0,0,0,1.351,1.27,5.012,5.012,0,0,0,3.687.68,7.839,7.839,0,0,0,1.375-.369l-3.454,3.691q-.258.024-.535.03a6.517,6.517,0,0,1-.724-.039,5.836,5.836,0,0,1-1.845-.53,7.464,7.464,0,0,1-3.662-4.6,11.98,11.98,0,0,1-.557-2.122,13.676,13.676,0,0,1-.174-2.706q.167-5.217,4.565-7.191l4.786,4.729-.085.094Zm-.834-7.725a7.845,7.845,0,0,0-.218,4.068,16.89,16.89,0,0,0,.558,2.262l2.912-3.121Z" transform="translate(-15.88 -48.596)" fill="#000000"/>
      <path id="Path_996" data-name="Path 996" d="M149.145,395.818a4.965,4.965,0,0,1,2.779,1.639l-2.659,2.575q-.146-.8-1.3-1.279l-1.71,1.635,1.067,8.1a3.11,3.11,0,0,0,.365,1.124,2.728,2.728,0,0,0,.592.716,2.57,2.57,0,0,0,.784.533l-2.625,2.53-.023-.017-.018,0-.041-.014-.107-.046-.147-.061q-.191-.093-.362-.19c-.145-.088-.289-.181-.435-.281a3.334,3.334,0,0,1-.829-.865,3.006,3.006,0,0,1-.514-1.341l-1.2-9.115a2.826,2.826,0,0,0-.955-1.82,2.681,2.681,0,0,0-.781-.513l2.6-2.528.02,0,.064.031.083.029.126.043c.1.054.2.105.319.157.129.076.251.152.368.229a3.554,3.554,0,0,1,.786.69,2.86,2.86,0,0,1,.6,1.074Z" transform="translate(-17.235 -48.375)" fill="#000000"/>
      <path id="Path_997" data-name="Path 997" d="M157.8,404.968a7.513,7.513,0,0,0,.642,1.262,5.81,5.81,0,0,0,1.261,1.358,5.022,5.022,0,0,0,3.634.925,7.841,7.841,0,0,0,1.4-.278l-3.692,3.454c-.172,0-.35,0-.536-.005a7.082,7.082,0,0,1-.72-.088,5.82,5.82,0,0,1-1.806-.651,7.464,7.464,0,0,1-3.349-4.83,11.733,11.733,0,0,1-.413-2.156,13.665,13.665,0,0,1,.008-2.711q.511-5.194,5.034-6.871l4.457,5.037-.09.089Zm-.317-7.763a7.823,7.823,0,0,0-.487,4.044,16.725,16.725,0,0,0,.406,2.3l3.113-2.921Z" transform="translate(-18.84 -48.199)" fill="#000000"/>
      <path id="Path_998" data-name="Path 998" d="M184.618,387.158h.018l.021.018a.283.283,0,0,0,.083.055c.094.048.195.1.3.163a7.882,7.882,0,0,0,.906.41,2.693,2.693,0,0,0,1.035.226.472.472,0,0,0,.478-.318l.008.158a7.85,7.85,0,0,1-.043,1.145q-.282,2.4-1.873,2.474a3.3,3.3,0,0,1-1.153-.182,7.442,7.442,0,0,1-.986-.445l-.486-.273-.466-.274a7.051,7.051,0,0,0-1.975-.892,6.335,6.335,0,0,0-1.661-.138,7.759,7.759,0,0,0-2.71.661,4.861,4.861,0,0,0-1.939,1.492,5.591,5.591,0,0,0-1.055,2.257,10.2,10.2,0,0,0-.214,2.553,8.483,8.483,0,0,0,.237,1.644A12.346,12.346,0,0,0,175,401.726q2.945,4.3,9.191,6.324l2.786-2.3.9,1.14-5.781,4.827a11.156,11.156,0,0,1-1.5-.441c-.946-.3-1.548-.5-1.8-.6q-6.523-2.843-8.45-8.191a11.737,11.737,0,0,1-.715-3.415q-.02-.413,0-.808a10.888,10.888,0,0,1,1.1-4.152,16.275,16.275,0,0,1,3.052-4.2q.772-.786,1.944-1.788l.475-.377.493-.417q.57-.442,1.029-.739a5.661,5.661,0,0,1,2.28-.956,2.381,2.381,0,0,1,.315-.034,4.833,4.833,0,0,1,2.088.413,9.474,9.474,0,0,1,1.129.538l.548.308Z" transform="translate(-20.731 -47.124)" fill="#000000"/>
      <path id="Path_999" data-name="Path 999" d="M203.764,404.392a2.771,2.771,0,0,0,1.437,2.528l-2.895,2.189-.02-.019h-.018a4.663,4.663,0,0,1-2.079-3.861l-.074-8.917q-.005-.847-1.152-1.487l-1.9,1.412.066,8.21a2.775,2.775,0,0,0,1.419,2.528l-2.9,2.189-.02-.019h-.018a4.666,4.666,0,0,1-2.079-3.861l-.124-15.376a3.067,3.067,0,0,0-.226-1.16,3.155,3.155,0,0,0-.5-.783,2.789,2.789,0,0,0-.713-.585l2.9-2.189h.039l.022.019.039.02.1.058.137.077a3.747,3.747,0,0,1,.337.234,2.9,2.9,0,0,1,.377.312,3.534,3.534,0,0,1,.735.958,3.14,3.14,0,0,1,.348,1.415l.052,6.379,3.443-2.607a4.9,4.9,0,0,1,2.537,1.928,4.385,4.385,0,0,1,.649,2.337Z" transform="translate(-23.462 -47.076)" fill="#000000"/>
      <path id="Path_1000" data-name="Path 1000" d="M216.232,393.068a4.962,4.962,0,0,1,2.5,2.037l-3.015,2.147a1.874,1.874,0,0,0-1.1-1.459l-1.935,1.361-.16,8.168a3.137,3.137,0,0,0,.195,1.166,2.732,2.732,0,0,0,.477.8,2.584,2.584,0,0,0,.7.643l-2.973,2.108-.021-.02h-.018l-.04-.021-.1-.061-.135-.082c-.118-.081-.226-.162-.332-.243-.127-.106-.257-.221-.386-.341a3.336,3.336,0,0,1-.69-.978,3,3,0,0,1-.307-1.4l.178-9.192a2.817,2.817,0,0,0-.672-1.943,2.682,2.682,0,0,0-.7-.625l2.956-2.108h.018l.058.04.079.041.117.061c.091.068.187.135.292.2.116.095.225.189.328.283a3.573,3.573,0,0,1,.675.8,2.9,2.9,0,0,1,.429,1.152Z" transform="translate(-25.385 -48.033)" fill="#000000"/>
      <path id="Path_1001" data-name="Path 1001" d="M225.615,404.994a2.83,2.83,0,0,0,.629,1.957,2.639,2.639,0,0,0,.683.638l-3.02,2.043-.019-.02h-.018l-.04-.021-.1-.063-.135-.084c-.114-.083-.223-.166-.324-.249a5.021,5.021,0,0,1-.36-.35,3.18,3.18,0,0,1-.688-.994,3.007,3.007,0,0,1-.277-1.41l.377-9.187a2.822,2.822,0,0,0-.63-1.957,2.673,2.673,0,0,0-.682-.639l3-2.045.021,0,.038.021.04.022.095.062.135.084c.1.07.21.153.325.249s.248.22.36.33a3.525,3.525,0,0,1,.688.994,3.14,3.14,0,0,1,.277,1.431Zm-1.249-17.114a3.268,3.268,0,0,0,.353.507,3.37,3.37,0,0,0,.607.557,2.638,2.638,0,0,0,1.363.429,3.419,3.419,0,0,0,.87-.083,5.327,5.327,0,0,1-1.815,1.976,2.86,2.86,0,0,1-1.637.485,3.931,3.931,0,0,1-2.783-1.808Z" transform="translate(-27.011 -47.405)" fill="#000000"/>
      <path id="Path_1002" data-name="Path 1002" d="M235.767,400.779q2.6,1.734,2.74,3.263a9.607,9.607,0,0,1,.054,1.641,4.747,4.747,0,0,1-.078.607,3.372,3.372,0,0,1-1.012,1.928q-.124.091-3.315,2.194a2.108,2.108,0,0,1-1.284.333,4.651,4.651,0,0,1-3.786-3.753l2.862-1.849a3.37,3.37,0,0,0,.409,1.012,3.766,3.766,0,0,0,2.019,1.747,1.56,1.56,0,0,0,.388.084.861.861,0,0,0,.837-.421.952.952,0,0,0,.115-.288l.031-.137.007-.136a1.564,1.564,0,0,0,.036-.234,1.329,1.329,0,0,0-.018-.337,4.216,4.216,0,0,0-2.333-3.02,25.158,25.158,0,0,1-2.653-1.7,3.3,3.3,0,0,1-1.325-2.748l.017-.215a3.424,3.424,0,0,1,1.209-2.252l.206-.164,3.973-2.587a3.347,3.347,0,0,1,.375,0,4.083,4.083,0,0,1,2.342,1.018,4.931,4.931,0,0,1,1.7,2.4l-2.944,1.922a4.768,4.768,0,0,0-.533-.882,4.719,4.719,0,0,0-1.13-1.176,2.715,2.715,0,0,0-1.212-.472l-.08-.005a.616.616,0,0,0-.34.057l-.04.037a1.024,1.024,0,0,0-.467.838l0,.039a2.083,2.083,0,0,0,.071.439,2.708,2.708,0,0,0,.135.344,11.71,11.71,0,0,0,3.029,2.472" transform="translate(-27.998 -48.122)" fill="#000000"/>
      <path id="Path_1003" data-name="Path 1003" d="M247.337,395.836l-.969,10.469a2.826,2.826,0,0,0,.527,1.986,2.666,2.666,0,0,0,.649.672l-3.1,1.888-.017-.022-.04,0-.038-.024-.092-.068-.131-.09q-.146-.133-.312-.267a4.513,4.513,0,0,1-.341-.369,3.15,3.15,0,0,1-.636-1.027,2.973,2.973,0,0,1-.2-1.422l1.117-12.056-1.452-.135.955-1.77.686.063a4.8,4.8,0,0,0-.069-1.806,3.1,3.1,0,0,0-.418-.829,2.809,2.809,0,0,0-.65-.653l3.121-1.885.019,0,.017.021.038.023.094.068.129.091a1.82,1.82,0,0,1,.311.266,4.335,4.335,0,0,1,.364.349,3.757,3.757,0,0,1,.617,1.026,3.15,3.15,0,0,1,.2,1.443l-.206,2.215,1.667.155-.954,1.77Z" transform="translate(-29.613 -47.48)" fill="#000000"/>
      <path id="Path_1004" data-name="Path 1004" d="M261.058,408.682a2.991,2.991,0,0,0,.073,1.16,2.71,2.71,0,0,0,.391.843,2.651,2.651,0,0,0,.626.694l-3.161,1.785-.019,0-.054-.047-.073-.049-.109-.073c-.084-.076-.167-.153-.249-.23-.107-.106-.212-.212-.317-.318a3.478,3.478,0,0,1-.587-.867,3.557,3.557,0,0,1-.3-1.209l-3.823,2.158a5,5,0,0,1-2.258-2.248,4.382,4.382,0,0,1-.334-2.4l1.052-8.361a2,2,0,0,0-.1-.925,2.486,2.486,0,0,0-.4-.745,3.565,3.565,0,0,0-.63-.674l3.161-1.786a3.4,3.4,0,0,1,.966,1.153,5.267,5.267,0,0,1,.471,1.31,6.589,6.589,0,0,1,.187,1.512l-1.134,9.025a1.813,1.813,0,0,0,.93,1.605l2.068-1.15,1.024-8.146a2.783,2.783,0,0,0-.092-1.161,2.96,2.96,0,0,0-.371-.841,2.9,2.9,0,0,0-.647-.7l3.182-1.784.018,0,.018.023.037.025.09.07.126.1c.109.093.208.184.3.276.129.122.248.243.351.361a3.933,3.933,0,0,1,.6,1.068,2.979,2.979,0,0,1,.158,1.428q-.105.84-1.165,9.12" transform="translate(-30.649 -48.322)" fill="#000000"/>
      <path id="Path_1005" data-name="Path 1005" d="M272.293,405.08q2.416,1.984,2.4,3.519a9.551,9.551,0,0,1-.111,1.638,4.431,4.431,0,0,1-.139.6,3.366,3.366,0,0,1-1.2,1.818q-.134.079-3.519,1.855a2.1,2.1,0,0,1-1.311.2,4.654,4.654,0,0,1-3.392-4.112l3.03-1.555a3.347,3.347,0,0,0,.306,1.048,3.762,3.762,0,0,0,1.835,1.94,1.465,1.465,0,0,0,.379.122.856.856,0,0,0,.873-.334.979.979,0,0,0,.144-.276l.044-.133.022-.136a1.428,1.428,0,0,0,.056-.229,1.343,1.343,0,0,0,.017-.338,4.22,4.22,0,0,0-2.021-3.236,25.018,25.018,0,0,1-2.472-1.954,3.3,3.3,0,0,1-1.042-2.865l.035-.214a3.442,3.442,0,0,1,1.427-2.12l.223-.142,4.21-2.179a3.236,3.236,0,0,1,.373.042,4.094,4.094,0,0,1,2.229,1.245,4.929,4.929,0,0,1,1.454,2.555l-3.121,1.62a4.919,4.919,0,0,0-.444-.93,4.728,4.728,0,0,0-1.007-1.284,2.7,2.7,0,0,0-1.159-.59l-.079-.012a.605.605,0,0,0-.343.022l-.045.033a1.026,1.026,0,0,0-.548.787l-.007.039a1.935,1.935,0,0,0,.026.443,2.655,2.655,0,0,0,.1.356,11.68,11.68,0,0,0,2.768,2.761" transform="translate(-32.39 -48.641)" fill="#000000"/>
      <path id="Path_1006" data-name="Path 1006" d="M290.333,407.732l-.068.49q-.107.843-.454,2.419l-.15.673a3.9,3.9,0,0,1-2.314,2.533,15.9,15.9,0,0,1,2.246.334,24.15,24.15,0,0,1,7.415,3.211q-4.637,2.462-4.772,2.434a24.437,24.437,0,0,0-8.248-3.374,35.09,35.09,0,0,0-5.34-.737,13.87,13.87,0,0,1,6.306-2.074,4.705,4.705,0,0,0,.406-1.119,4.287,4.287,0,0,0,.094-.6l.855-7.977a7.69,7.69,0,0,1,.165-1.113,10.833,10.833,0,0,1,.578-1.788,8.236,8.236,0,0,1,1.447-2.361,6.536,6.536,0,0,1,2.606-1.844l-2.345-.88a12.345,12.345,0,0,1-3.078-2.172,8.264,8.264,0,0,1-2.492-4.926q.055.3,1.406,1.39A11.56,11.56,0,0,0,288,392.076q.8.3,4.778,1.327a16.215,16.215,0,0,1,5.706,2.38q1.726,1.348,2.405,5.491-1.124-1.577-7.942-3.75a8.63,8.63,0,0,0-1.723,3.874c-.068.308-.132.623-.188.946l-.274,2.057-.071.508.754.328a12.446,12.446,0,0,0,2.269.865,2.971,2.971,0,0,0,.35.057,1.6,1.6,0,0,0,1.5-.6,1.674,1.674,0,0,0,.355-.688,3.076,3.076,0,0,1,.4,2.043,2.115,2.115,0,0,1-.765,1.181,2.945,2.945,0,0,1-2.6.636,4.561,4.561,0,0,1-.679-.211q-1.562-.607-1.943-.792" transform="translate(-34.055 -47.524)" fill="#000000"/>
      <path id="Path_1007" data-name="Path 1007" d="M308.763,413.209q2.2,2.22,2.032,3.745a9.617,9.617,0,0,1-.277,1.618,4.393,4.393,0,0,1-.2.578,3.365,3.365,0,0,1-1.378,1.687q-.138.065-3.688,1.485a2.1,2.1,0,0,1-1.324.068,4.654,4.654,0,0,1-2.956-4.435l3.172-1.239a3.416,3.416,0,0,0,.2,1.074,3.763,3.763,0,0,0,1.628,2.115,1.539,1.539,0,0,0,.363.161.856.856,0,0,0,.9-.245.983.983,0,0,0,.172-.259l.054-.127.038-.133a1.684,1.684,0,0,0,.081-.223,1.4,1.4,0,0,0,.048-.333,4.223,4.223,0,0,0-1.68-3.426,24.662,24.662,0,0,1-2.258-2.2,3.3,3.3,0,0,1-.746-2.958l.056-.209A3.441,3.441,0,0,1,304.642,408l.236-.119,4.41-1.739a3.31,3.31,0,0,1,.368.08,4.088,4.088,0,0,1,2.09,1.466,4.905,4.905,0,0,1,1.185,2.689l-3.268,1.294a4.9,4.9,0,0,0-.348-.971,4.64,4.64,0,0,0-.87-1.379,2.721,2.721,0,0,0-1.093-.707l-.076-.02a.607.607,0,0,0-.345-.011l-.047.027a1.025,1.025,0,0,0-.627.728l-.011.039a1.984,1.984,0,0,0-.018.443,2.62,2.62,0,0,0,.064.364,11.678,11.678,0,0,0,2.471,3.028" transform="translate(-36.778 -49.637)" fill="#000000"/>
      <path id="Path_1008" data-name="Path 1008" d="M320.979,410.655l-3.056,10.059a2.82,2.82,0,0,0,.119,2.052,2.677,2.677,0,0,0,.5.79l-3.418,1.225-.013-.025-.038-.012-.032-.03-.076-.085-.109-.115q-.116-.159-.252-.324a4.184,4.184,0,0,1-.26-.428,3.176,3.176,0,0,1-.417-1.135,2.984,2.984,0,0,1,.087-1.434l3.519-11.585-1.395-.424,1.291-1.542.66.2a4.847,4.847,0,0,0,.295-1.783,3.229,3.229,0,0,0-.242-.9,2.8,2.8,0,0,0-.508-.771l3.437-1.22.018.006.013.025.032.03.077.086.109.115a1.934,1.934,0,0,1,.253.323,4.634,4.634,0,0,1,.285.416,3.748,3.748,0,0,1,.4,1.13,3.157,3.157,0,0,1-.092,1.453l-.647,2.129,1.6.487-1.292,1.541Z" transform="translate(-38.361 -49.274)" fill="#000000"/>
      <path id="Path_1009" data-name="Path 1009" d="M251.193,271.208l24.541,40.159-1.084,15.571-35.08-55.749-1.3,0,35.583,56.346-12.363-4.044L227.781,271.17l-3.458-.006,35.255,54.8,13.82,4.521,3.876,1.268.271-3.907,1.2-17.219L254.6,271.214Z" transform="translate(-27.416 -33.14)" fill="#000000"/>
      <path id="Path_1010" data-name="Path 1010" d="M318.529,36.314c8.36-10.211-2.109-28.69-15.505-16.992a11.293,11.293,0,0,0-9.746,10.322,11.306,11.306,0,0,0-9.429,12.912c.007.046.013.084.021.129a10.2,10.2,0,0,0-6.742,11.141c-.93,1.412-3.35,4.2-6.762,4.035Q268.75,56.776,267.2,55.6a22.168,22.168,0,0,1-5.613-6,8.58,8.58,0,0,0-1.023-12.482c-4.5-3.814-9.987-3.72-13.8,1.294-8.252,10.84,1.651,20.931,9.22,27.713,2.347,2.175,7.492,6.519,4.206,11.5L245.428,102.33l3.107.248,16.5-27.668c3.241,3.35,5.6,6.59,5.523,11.129l-11.383,18.7,1.381.331L271.537,87.1c6.342-4.025,11.212-3.29,15.273-1.259L273.182,107.5l2.993.4,11.248-17.912c2.4-3.6,9.829.732,12.479,4.241l-.717,1.5A9.021,9.021,0,0,0,312.624,105.8c5.85-3.552,6.1-12.247,3.076-17.936-2.773-5.219-8.076-9.418-13.79-12.9a5.579,5.579,0,0,1-1.935-3.9A9.43,9.43,0,0,0,308.227,60.6a8.931,8.931,0,0,0-.522-2.165,8.027,8.027,0,0,0,6.41-9.369,7.73,7.73,0,0,0-.19-.79,9.247,9.247,0,0,0,4.6-11.956M306.621,20.175c.844-.919,1.51-1.445,4.036-.571,4.107,1.295,6.265,4.758,7.759,8.222a2.753,2.753,0,0,1,.208,1.93,1.062,1.062,0,0,1-1.77.373,18.9,18.9,0,0,0-6.823-7.952c-.282-.248-1.078-.3-.92.244a5.929,5.929,0,0,0,1.031,1.938,2.113,2.113,0,0,1,.165,1.9c-.4.669-1.367.509-2.036.114a6.106,6.106,0,0,1-2.193-3.422,3.257,3.257,0,0,1,.543-2.778M277.336,57.56c1.355-2.169,3.818-2.59,6.137-1.255a79.318,79.318,0,0,1,11.2,11.3,3.66,3.66,0,0,1,.924,2.848,1.541,1.541,0,0,1-2.563.618A66.3,66.3,0,0,0,282.308,60.16c-.428-.333-.572-.419-1.014-.328-.184.038-.493-.014-.171.761a9.617,9.617,0,0,0,1.766,2.713,3.372,3.372,0,0,1,.6,2.734c-.4,1-1.733.856-2.71.342a11.282,11.282,0,0,1-3.621-4.758,5.1,5.1,0,0,1,.18-4.064m29.071,24.1c6.751,5.884,8.7,9.6,8.132,16.235-.919,5.768-6.322,7.387-9.546,5.573-3.443-1.935-5.879-8.136,1.927-10.927a6.346,6.346,0,0,0-4.858-.351c-7.027-8.85-18.024-12.742-29.056-9.356-3.346-10.508-17.708-20.11-21.982-26-3.2-3.929-5.169-7.977-4.054-12.922,2.563-6.132,7.132-8.586,11.685-4.542,4.116,3.656,2.209,9.681-4.383,11.329a8.829,8.829,0,0,0,4.491-.065c6.2,12.154,35.99,21.428,47.644,31.026m-1.813-19.705a1.968,1.968,0,0,1-3.179.8,75.671,75.671,0,0,0-12.965-12.764c-.519-.388-1.7.032-1.474.546a10.871,10.871,0,0,0,2.11,3.2,3.833,3.833,0,0,1,.668,3.253c-.515,1.208-2.254,1.3-3.352.478a13.821,13.821,0,0,1-4.347-5.595c-.393-1.455-.683-3.332.324-4.863,1.729-2.627,5.02-3.6,7.607-1.657a90.469,90.469,0,0,1,13.539,13.218,4.145,4.145,0,0,1,1.069,3.38m6.3-10.832a2.07,2.07,0,0,1-3.278.676,70.422,70.422,0,0,0-12.125-12.881c-.5-.4-1.843-.426-1.532.482a9.957,9.957,0,0,0,1.887,3.19,3.561,3.561,0,0,1,.426,3.193c-.614,1.16-2.266.966-3.426.351a11.877,11.877,0,0,1-3.965-5.6,5.7,5.7,0,0,1,.7-4.729c1.95-2.5,5.321-3.336,7.817-1.356A84.377,84.377,0,0,1,310.075,47.79a3.828,3.828,0,0,1,.822,3.331m4.3-10.62a1.79,1.79,0,0,1-2.886.215,60.868,60.868,0,0,0-8.967-12.4c-.38-.4-1.533-.57-1.367.243a8.567,8.567,0,0,0,1.264,2.946,3.084,3.084,0,0,1,.011,2.787c-.657.926-2.052.576-2.979-.08a9.973,9.973,0,0,1-2.777-5.247,4.926,4.926,0,0,1,1.129-3.978c1.95-1.928,5.06-2.316,6.855-.292a73,73,0,0,1,9.384,12.857A3.308,3.308,0,0,1,315.2,40.5" transform="translate(-29.777 -1.903)" fill="#000000"/>
      <path id="Path_1011" data-name="Path 1011" d="M175.165,271.087l-31.756,50.466L128.978,327.5l34.489-56.436-1.283,0-34.092,55.99-1.871-12.872,25.728-43.135-3.392-.006-25.409,42.529,2.094,14.389.586,4.036,3.622-1.493,15.956-6.58,33.174-52.831Z" transform="translate(-15.051 -33.126)" fill="#000000"/>
      <path id="Path_1012" data-name="Path 1012" d="M123.219,107.055l-11.881-18.44c4.441-1.413,8.394-2.091,12.423,0l10.395,16.46,1.438-.261-10.448-16.6c-.787-7.469,2.036-11.507,5.661-14.24l17.449,28.553,2.908-.526L134.791,75.264c-2.157-3.752,5.025-8.48,9.345-9.293l1.029,1.31a9.021,9.021,0,0,0,15-7.56c-.582-6.82-8.261-10.9-14.7-10.727-5.907.163-12.026,3.048-17.683,6.62a5.576,5.576,0,0,1-4.35,0,9.429,9.429,0,0,0-5.716-12.048,8.96,8.96,0,0,0-2.172-.5A8.028,8.028,0,0,0,110,33.163a7.65,7.65,0,0,0-.792-.18,9.249,9.249,0,0,0-8.665-9.441C95.108,11.517,73.9,12.679,78.427,29.88A11.292,11.292,0,0,0,83.341,43.2a11.307,11.307,0,0,0,7.376,14.187c.043.013.081.025.124.04a10.2,10.2,0,0,0,6.983,10.991c.853,1.461,2.277,4.868.609,7.851q-1.689.964-3.432,1.828a22.119,22.119,0,0,1-7.87,2.358,8.578,8.578,0,0,0-11.636-4.629c-5.419,2.339-7.772,7.291-4.976,12.939C76.56,100.972,90,96.586,99.441,92.822c2.991-1.136,9.169-3.814,12.172,1.343l8.637,13.427Zm-2.292-47.8a1.543,1.543,0,0,1-.585,2.573A66.344,66.344,0,0,0,105.8,66.588c-.489.236-.63.327-.745.764-.047.182-.232.435.606.491a9.586,9.586,0,0,0,3.215-.377,3.374,3.374,0,0,1,2.715.681c.722.8,0,1.932-.9,2.58a11.291,11.291,0,0,1-5.872,1.128,5.1,5.1,0,0,1-3.562-1.967c-1.339-2.18-.622-4.571,1.6-6.058a79.52,79.52,0,0,1,15.1-5.014,3.669,3.669,0,0,1,2.963.437M80.79,27.037c-.449-1.166-.623-2,1.282-3.87,2.986-3.1,7.046-3.5,10.814-3.3a2.764,2.764,0,0,1,1.822.672,1.062,1.062,0,0,1-.453,1.751A18.882,18.882,0,0,0,84.1,24.873c-.348.141-.751.831-.191.931a5.877,5.877,0,0,0,2.194-.061,2.113,2.113,0,0,1,1.777.7c.424.65-.151,1.451-.8,1.875a6.114,6.114,0,0,1-4.04.443,3.255,3.255,0,0,1-2.247-1.721m3.818,12.079a4.923,4.923,0,0,1-3.062-2.779c-.861-2.6.175-5.562,2.786-6.271a72.987,72.987,0,0,1,15.688-2.692,3.307,3.307,0,0,1,2.79,1.012,1.789,1.789,0,0,1-1.09,2.681,60.943,60.943,0,0,0-15.094,2.522c-.523.164-1.192,1.118-.39,1.332a8.618,8.618,0,0,0,3.2.177,3.081,3.081,0,0,1,2.5,1.23c.538,1-.395,2.094-1.395,2.632a9.978,9.978,0,0,1-5.935.156m6.532,12.855a5.693,5.693,0,0,1-3.924-2.73c-1.375-2.858-.624-6.249,2.26-7.6a84.3,84.3,0,0,1,17.586-5.42,3.825,3.825,0,0,1,3.349.744,2.069,2.069,0,0,1-.851,3.236,70.438,70.438,0,0,0-16.929,5.137c-.575.268-1.2,1.462-.249,1.586a9.934,9.934,0,0,0,3.7-.273,3.558,3.558,0,0,1,3.049,1.038c.767,1.067-.141,2.459-1.206,3.224a11.859,11.859,0,0,1-6.781,1.063m7.127,11.161c-1.477-.3-3.288-.87-4.212-2.453-1.585-2.716-.99-6.1,1.9-7.551a90.435,90.435,0,0,1,17.859-6.252,4.143,4.143,0,0,1,3.5.543,1.969,1.969,0,0,1-.694,3.207,75.673,75.673,0,0,0-17.2,5.94c-.578.292-.725,1.536-.165,1.563a10.828,10.828,0,0,0,3.8-.47,3.839,3.839,0,0,1,3.211.848c.854,1,.166,2.6-1.061,3.216a13.834,13.834,0,0,1-6.944,1.407m-9.353,30c-4.943,1.122-9.444,1.086-13.377-2.111C71.184,86,71.015,80.816,76.663,78.535c5.1-2.061,9.655,2.324,8.2,8.96a8.832,8.832,0,0,0,1.937-4.05c13.642-.15,35.191-22.715,48.969-28.89,8.272-3.43,12.471-3.528,18.159-.067,4.759,3.386,3.806,8.946.75,11.028-3.264,2.223-9.9,1.651-8.931-6.582a6.336,6.336,0,0,0-2.473,4.194C132.222,65.491,123.848,73.61,121.977,85c-10.9-1.672-25.886,6.924-33.063,8.134" transform="translate(-8.474 -1.903)" fill="#000000"/>
      <path id="Path_1013" data-name="Path 1013" d="M185.435,0H51.334V272.764c-.031,16.56,10.228,29.524,27.729,33.183,29.128,5.978,70.454,10.345,92.321,21.017l7.012-.083c-15.434-9.939-44.269-14.845-72.386-19.628-9.373-1.595-18.226-3.1-26.229-4.743-7.715-1.613-14.094-5.261-18.446-10.548a29.652,29.652,0,0,1-6.49-19.2V3.511H316V272.77a29.648,29.648,0,0,1-6.491,19.192c-4.353,5.288-10.731,8.935-18.433,10.546-8.015,1.645-16.868,3.15-26.241,4.745-27.949,4.754-56.608,9.633-72.11,19.456l3.451-.042,3.35.265c21.884-10.649,63.157-15.014,92.255-20.985,17.5-3.659,27.759-16.623,27.73-33.183V0Z" transform="translate(-6.274)" fill="#000000"/>
    </g>
  </g>
</svg>
